<svg width="23" height="26" viewBox="0 0 23 26" fill="none" xmlns="http://www.w3.org/2000/svg">
<path d="M8.63558 9.59996C7.51538 9.33129 6.21253 9.49077 5.19993 9.80036C5.19866 9.80075 5.19747 9.80111 5.19618 9.80151C1.82858 10.8311 0.649851 12.7969 1.6548 16.7819C2.69395 20.7621 7.38523 24.4931 12.2708 22.9994C12.2747 22.9982 12.2784 22.9971 12.2823 22.9959C12.7462 22.8541 13.1138 22.3238 13.3942 21.9168C13.8672 22.0934 14.4568 22.3311 14.9207 22.1892C14.9243 22.1882 14.9286 22.1868 14.9322 22.1857C19.8183 20.6919 21.622 14.9755 20.2577 11.0944C18.8625 7.22876 16.7852 6.25838 13.4176 7.28797C13.4164 7.28834 13.415 7.28875 13.4138 7.28912C12.3973 7.59989 11.2268 8.1981 10.447 9.05285C10.4466 9.05176 10.4461 9.05068 10.4456 9.04959C10.162 9.36054 9.92995 9.70492 9.77563 10.081C9.43599 9.85241 9.04746 9.69547 8.63401 9.59631" fill="#B8AEC9"/>
<path d="M11.9024 5.95093C12.6486 5.20307 13.1102 4.17613 13.2592 3.13712C13.3884 2.23725 13.3095 1.3137 13.0181 0.451489C12.9359 0.208111 12.6806 0.0617059 12.4295 0.138496C12.3622 0.159044 12.3017 0.195123 12.2512 0.241725C12.231 0.251748 12.2116 0.263641 12.1931 0.277648C11.6562 0.684242 11.0934 1.05303 10.5896 1.50215C10.0895 1.94807 9.68717 2.48943 9.31872 3.04608C8.79799 3.83277 8.38736 4.71237 8.19279 5.63743C7.73027 5.17492 7.22057 4.7606 6.66383 4.40324C5.93599 3.93604 5.10787 3.60114 4.26541 3.40993C3.76406 3.29614 3.25014 3.60764 3.13069 4.11055C3.01277 4.607 3.33089 5.13169 3.83132 5.24527C4.09882 5.30599 4.36203 5.38217 4.62038 5.47379C5.09405 5.66355 5.54414 5.90531 5.96602 6.19236C6.4568 6.55364 6.90116 6.9727 7.29952 7.43366C7.65332 7.86933 7.9665 8.3357 8.24151 8.82407C8.69684 8.88398 9.11494 8.99324 9.49291 9.15158C9.67048 8.88188 9.88549 8.62368 10.1363 8.37771C9.93638 7.97622 9.71448 7.58616 9.46962 7.21273C10.386 7.04462 11.2322 6.62263 11.9024 5.95093ZM9.26376 6.29963C9.25603 6.30079 9.24828 6.30206 9.24053 6.30318C9.19524 6.30992 9.1498 6.31548 9.10435 6.32086C9.07991 6.32375 9.05545 6.32633 9.03095 6.32876C9.03146 6.3232 9.03194 6.31789 9.03235 6.3134C9.03948 6.25165 9.04784 6.19002 9.0571 6.12856C9.10334 5.82141 9.18078 5.51944 9.27709 5.22438C9.2962 5.16578 9.31681 5.10766 9.33776 5.0497C9.34384 5.03354 9.35875 4.99353 9.36229 4.98445C9.37601 4.94941 9.39027 4.91465 9.40454 4.87985C9.46653 4.72877 9.53495 4.58038 9.60678 4.43378C9.7449 4.15193 9.9017 3.87943 10.0698 3.61444C10.1442 3.49704 10.2221 3.38183 10.3016 3.26779C10.313 3.25167 10.3305 3.22685 10.3355 3.22008C10.3571 3.19017 10.379 3.16048 10.4009 3.1308C10.4517 3.06202 10.5037 2.9941 10.5561 2.92654C10.7598 2.66396 10.9806 2.4204 11.2246 2.19447C11.2816 2.14166 11.3401 2.09046 11.399 2.0398C11.4025 2.03681 11.4056 2.03418 11.4084 2.03173C11.4121 2.02866 11.4165 2.02513 11.4216 2.02086C11.4506 1.99705 11.4799 1.97369 11.5092 1.9503C11.6353 1.84978 11.7649 1.7538 11.8951 1.65889C12.0268 1.56292 12.1594 1.46824 12.2916 1.373C12.3 1.41368 12.3081 1.4544 12.3156 1.49531C12.3164 1.49949 12.3174 1.50556 12.3186 1.51236C12.3225 1.5376 12.3262 1.56287 12.3297 1.58814C12.3385 1.65026 12.3456 1.7126 12.3522 1.77498C12.3663 1.90948 12.3741 2.0446 12.378 2.17977C12.3815 2.30375 12.3796 2.42779 12.3743 2.55171C12.3717 2.61335 12.3675 2.67493 12.3628 2.73644C12.3619 2.74718 12.3608 2.75791 12.3599 2.76863C12.3585 2.77957 12.352 2.84161 12.3498 2.85935C12.3182 3.11122 12.2659 3.3603 12.1969 3.60452C12.1689 3.70381 12.1368 3.8019 12.1024 3.89913C12.1028 3.89565 12.0607 4.00673 12.0505 4.03107C12.0237 4.09552 11.9949 4.15907 11.9653 4.22223C11.8676 4.43035 11.7524 4.62994 11.6236 4.8203C11.6227 4.82005 11.5564 4.91252 11.5406 4.93312C11.5046 4.98007 11.4671 5.02586 11.4291 5.07121C11.3467 5.16962 11.2587 5.26322 11.1674 5.35337C11.1251 5.39511 11.0815 5.43541 11.0374 5.47524C11.0177 5.49298 10.9976 5.51031 10.9776 5.52762C10.9759 5.52897 10.9743 5.53034 10.9723 5.53193C10.8713 5.61393 10.7654 5.68969 10.6568 5.7612C10.5207 5.85077 10.3782 5.9301 10.2322 6.00201C10.2225 6.00675 10.2127 6.01133 10.203 6.01598C10.166 6.03238 10.1285 6.04784 10.0911 6.06311C10.0029 6.09904 9.91312 6.13079 9.82272 6.16042C9.64617 6.21828 9.46526 6.26205 9.28276 6.29631C9.275 6.29763 9.26883 6.29872 9.26376 6.29963Z" fill="#B8AEC9"/>
</svg>
