<svg width="23" height="26" viewBox="0 0 23 26" fill="none" xmlns="http://www.w3.org/2000/svg">
<path d="M10.6327 9.58666C9.51073 8.92611 8.04985 8.66797 6.85309 8.66797C6.85159 8.66797 6.85018 8.66797 6.84865 8.66797C2.86859 8.66797 0.944976 10.4032 0.714355 15.0424C0.522258 19.6878 4.3599 25.2706 10.134 25.2706C10.1386 25.2706 10.143 25.2706 10.1476 25.2706C10.6959 25.2706 11.2684 24.8189 11.706 24.4717C12.1589 24.8189 12.7176 25.2706 13.2658 25.2706C13.2701 25.2706 13.2752 25.2706 13.2794 25.2706C19.0541 25.2706 22.8927 19.6881 22.7006 15.0424C22.4699 10.4032 20.5454 8.66797 16.5653 8.66797C16.5638 8.66797 16.5622 8.66797 16.5608 8.66797C15.3595 8.66797 13.8966 8.92772 12.7713 9.5939C12.7712 9.59258 12.7711 9.59125 12.7709 9.58993C12.3617 9.8323 11.997 10.1278 11.706 10.4833C11.4144 10.124 11.0463 9.826 10.6322 9.5822" fill="#EBF2EF" fill-opacity="0.2"/>
<path d="M15.3696 6.72241C16.4233 6.16067 17.2616 5.20324 17.766 4.1295C18.2029 3.19954 18.4228 2.17527 18.3928 1.14707C18.3843 0.856837 18.1569 0.614258 17.86 0.614258C17.7806 0.614258 17.7032 0.633247 17.6332 0.666919C17.6081 0.671096 17.5832 0.677529 17.5586 0.686557C16.844 0.948619 16.1137 1.16121 15.4208 1.48019C14.7329 1.79688 14.1192 2.24907 13.537 2.72896C12.7142 3.40718 11.9797 4.22219 11.4638 5.15774C11.1167 4.505 10.7027 3.88876 10.219 3.31854C9.58673 2.57305 8.80233 1.93743 7.95495 1.45238C7.45067 1.16373 6.79227 1.33058 6.49698 1.83468C6.20548 2.33229 6.37594 3.00451 6.87928 3.29265C7.14835 3.44666 7.40766 3.61598 7.65662 3.80038C8.10588 4.162 8.51246 4.57203 8.87359 5.02171C9.28466 5.57436 9.62647 6.17413 9.90472 6.80399C10.1431 7.39181 10.3275 7.99936 10.4634 8.61809C10.9357 8.8333 11.3515 9.08955 11.7077 9.3856C11.9888 9.15277 12.3065 8.94475 12.6588 8.76175C12.5755 8.26176 12.4645 7.76684 12.3233 7.28231C13.3693 7.40343 14.4233 7.22695 15.3696 6.72241ZM12.4025 6.22737C12.3937 6.22607 12.3849 6.22488 12.3762 6.22353C12.325 6.21585 12.2741 6.20685 12.2232 6.19764C12.1958 6.19268 12.1685 6.18739 12.1412 6.18192C12.1436 6.17608 12.1459 6.1705 12.1478 6.16578C12.1759 6.10139 12.2053 6.03755 12.2356 5.97418C12.3871 5.65748 12.5706 5.35669 12.7722 5.06959C12.8122 5.01257 12.8537 4.95657 12.8955 4.90084C12.9074 4.88538 12.9367 4.84707 12.9436 4.83843C12.97 4.80509 12.9969 4.77223 13.0238 4.73933C13.1407 4.59652 13.2637 4.45875 13.3898 4.32403C13.6322 4.06503 13.8917 3.82232 14.161 3.59144C14.2802 3.48915 14.4025 3.39037 14.526 3.29337C14.5437 3.27973 14.5709 3.25869 14.5785 3.25301C14.6117 3.22782 14.6452 3.20297 14.6787 3.17814C14.7563 3.12058 14.8349 3.06434 14.9139 3.00864C15.2209 2.79216 15.54 2.60188 15.8783 2.43829C15.9574 2.40005 16.0376 2.36404 16.118 2.32876C16.1228 2.32669 16.1269 2.32485 16.1308 2.32313C16.1359 2.32106 16.1417 2.31867 16.1487 2.31577C16.1879 2.2996 16.2273 2.28404 16.2667 2.26845C16.4361 2.20144 16.6079 2.14053 16.7801 2.08099C16.9541 2.02078 17.1287 1.96226 17.3031 1.90301C17.2987 1.94976 17.294 1.99645 17.2886 2.04315C17.2881 2.04792 17.2872 2.05482 17.2862 2.06255C17.282 2.09111 17.2777 2.11965 17.2732 2.14813C17.2621 2.21817 17.2492 2.2879 17.2357 2.35751C17.2066 2.50755 17.1704 2.65617 17.1299 2.80354C17.0927 2.9387 17.0496 3.07214 17.003 3.20434C16.9798 3.2701 16.9549 3.33527 16.9294 3.40018C16.925 3.41151 16.9203 3.42274 16.9157 3.43403C16.9106 3.44539 16.8831 3.5103 16.8748 3.52874C16.7575 3.79054 16.6186 4.04246 16.4634 4.28364C16.4003 4.3817 16.3332 4.47711 16.2638 4.57081C16.2654 4.56721 16.1832 4.67334 16.1642 4.69629C16.1139 4.7571 16.0618 4.81627 16.0089 4.87475C15.8345 5.06741 15.644 5.24506 15.442 5.40826C15.4411 5.40769 15.3389 5.48572 15.315 5.50277C15.2605 5.5416 15.2048 5.5787 15.1488 5.61517C15.0272 5.69429 14.9011 5.76638 14.7727 5.83365C14.7132 5.86481 14.6527 5.89394 14.5919 5.92242C14.5648 5.93511 14.5374 5.9472 14.51 5.95929C14.5077 5.96019 14.5055 5.96113 14.5028 5.96219C14.3666 6.01745 14.227 6.06432 14.086 6.10573C13.9094 6.15758 13.7292 6.19624 13.5476 6.22571C13.5355 6.22763 13.5234 6.22934 13.5114 6.23115C13.466 6.23665 13.4204 6.24099 13.3748 6.24511C13.2677 6.25481 13.1601 6.25946 13.0526 6.26161C12.8427 6.26581 12.6327 6.25333 12.4241 6.23006C12.4153 6.22892 12.4083 6.22807 12.4025 6.22737Z" fill="#EBF2EF" fill-opacity="0.2"/>
</svg>
