<svg width="35" height="35" viewBox="0 0 35 35" fill="none" xmlns="http://www.w3.org/2000/svg">
<g clip-path="url(#clip0_464_199)">
<path d="M17.5 35C27.165 35 35 27.165 35 17.5C35 7.83502 27.165 0 17.5 0C7.83502 0 0 7.83502 0 17.5C0 27.165 7.83502 35 17.5 35Z" fill="white" fill-opacity="0.26"/>
<path d="M26.4593 15.9677C24.4633 13.9718 22.4677 11.9759 20.4717 9.97992C19.2064 8.71434 16.941 9.64525 16.941 11.4384C16.941 12.4348 16.941 13.4313 16.941 14.4277C16.6932 14.3672 16.4268 14.331 16.1363 14.331C14.2222 14.331 12.3081 14.331 10.3939 14.331C6.37913 14.331 6.34344 20.5498 10.3491 20.5498C12.2633 20.5498 14.1774 20.5498 16.0916 20.5498C16.3988 20.5498 16.6801 20.5095 16.941 20.4423C16.941 21.3603 16.941 22.2782 16.941 23.1959C16.9302 23.3238 16.9332 23.4512 16.9489 23.5767C17.0081 24.4662 17.543 25.0371 18.2118 25.2866C18.867 25.6083 19.6683 25.6 20.3553 25.0056C20.4669 24.9208 20.5689 24.8235 20.6598 24.7135C22.5983 22.7753 24.5367 20.8369 26.4749 18.8987C27.2764 18.0977 27.2545 16.7628 26.4593 15.9677Z" fill="white"/>
</g>
<defs>
<clipPath id="clip0_464_199">
<rect width="35" height="35" fill="white"/>
</clipPath>
</defs>
</svg>
