<svg width="18" height="18" viewBox="0 0 18 18" fill="none" xmlns="http://www.w3.org/2000/svg">
<path fill-rule="evenodd" clip-rule="evenodd" d="M13.8263 14.3463C13.0145 15.1351 12.1505 15.9542 12.1505 15.9542L10.6607 13.4108C12.2208 13.0308 13.5694 12.1302 14.51 10.9046L16.1392 13.6852C16.1392 13.6852 14.9777 14.0191 13.8263 14.3463ZM9 10.6865C6.8266 10.6865 5.06471 8.92461 5.06471 6.75121C5.06471 4.57781 6.8266 2.81592 9 2.81592C11.1734 2.81592 12.9353 4.57781 12.9353 6.75121C12.9353 8.92461 11.1734 10.6865 9 10.6865ZM5.84952 15.9542C5.84952 15.9542 4.98545 15.1351 4.17366 14.3463C3.02231 14.0191 1.86083 13.6852 1.86083 13.6852L3.49004 10.9046C4.43057 12.1302 5.77924 13.0308 7.3393 13.4108L5.84952 15.9542ZM15.1958 9.80724C15.6473 8.90156 15.9081 7.88738 15.9081 6.81079C15.9081 3.05203 12.815 0.00500488 9 0.00500488C5.18502 0.00500488 2.09189 3.05203 2.09189 6.81079C2.09189 7.88738 2.35274 8.90156 2.80418 9.80724L0 14.5914C0 14.5914 1.77819 14.9484 3.58224 15.3194C4.78531 16.6586 5.98276 17.9949 5.98276 17.9949L8.56093 13.5952C8.7071 13.6042 8.85158 13.6172 9 13.6172C9.14842 13.6172 9.2929 13.6042 9.43907 13.5952L12.0172 17.9949C12.0172 17.9949 13.2147 16.6586 14.4178 15.3194C16.2218 14.9484 18 14.5914 18 14.5914L15.1958 9.80724ZM9 3.94029C7.44725 3.94029 6.18908 5.19846 6.18908 6.75121C6.18908 8.30396 7.44725 9.56213 9 9.56213C10.5528 9.56213 11.8109 8.30396 11.8109 6.75121C11.8109 5.19846 10.5528 3.94029 9 3.94029Z" fill="white"/>
</svg>
