<svg width="27" height="23" viewBox="0 0 27 23" fill="none" xmlns="http://www.w3.org/2000/svg">
<path d="M24.3491 4.37805V3.53711V2.71374V0.980469H22.7462V2.61274V3.27472V3.33028V3.42219V4.24232C21.3224 4.60886 20.4627 6.77697 20.2848 7.80814C20.0903 8.93655 19.2146 10.5715 19.2146 10.5715C16.4555 16.0891 9.05353 18.0323 5.85739 18.6274C4.92718 18.8006 4.3534 18.8599 4.3534 18.8599L4.20969 21.1974C4.91281 21.8342 5.80346 22.2243 6.71174 22.4663C7.85564 22.7703 9.04124 22.9039 10.2241 22.9039C10.3016 22.9039 10.3786 22.9033 10.456 22.9023C17.9997 22.7922 25.2553 17.7827 26.3425 10.0072C26.638 7.89523 26.4307 5.11967 24.3491 4.37805Z" fill="#EBF2EF" fill-opacity="0.2"/>
<path d="M17.5178 8.32531C12.2165 14.2101 1.22016 12.2008 1.22016 12.2008L0.449921 14.4166C0.941157 15.2255 1.67729 15.8493 2.4696 16.3343C3.03913 16.6829 3.63654 16.9817 4.25177 17.2349C4.45352 17.2086 4.88752 17.148 5.47858 17.0353C8.28902 16.5005 15.0846 14.7267 17.4926 9.80954L17.5026 9.78971L17.5126 9.77038C17.8 9.22167 18.2949 8.11506 18.4021 7.48161C18.4153 7.40382 18.431 7.32179 18.4499 7.23486C17.9765 7.84364 17.5178 8.32531 17.5178 8.32531Z" fill="#EBF2EF" fill-opacity="0.2"/>
</svg>
