<svg width="26" height="22" viewBox="0 0 26 22" fill="none" xmlns="http://www.w3.org/2000/svg">
<path d="M23.8992 3.39759L23.8992 2.55664L23.8992 1.73327L23.8992 2.23012e-07L22.2963 2.05263e-07L22.2963 1.63227L22.2963 2.29426L22.2963 2.34981L22.2963 2.44173L22.2963 3.26185C20.8725 3.62839 20.0128 5.7965 19.8348 6.82767C19.6404 7.95609 18.7647 9.591 18.7647 9.591C16.0056 15.1086 8.60361 17.0518 5.40747 17.647C4.47726 17.8201 3.90348 17.8794 3.90348 17.8794L3.75977 20.2169C4.46289 20.8538 5.35354 21.2438 6.26182 21.4858C7.40572 21.7899 8.59132 21.9234 9.77422 21.9234C9.85171 21.9234 9.92865 21.9229 10.0061 21.9218C17.5497 21.8118 24.8053 16.8023 25.8926 9.02676C26.1881 6.91476 25.9808 4.1392 23.8992 3.39759Z" fill="#B8AEC9"/>
<path d="M17.0679 7.34484C11.7665 13.2296 0.770237 11.2203 0.770237 11.2203L-7.95267e-08 13.4362C0.491236 14.2451 1.22737 14.8689 2.01968 15.3538C2.58921 15.7025 3.18662 16.0012 3.80185 16.2544C4.0036 16.2281 4.4376 16.1675 5.02866 16.0549C7.8391 15.5201 14.6347 13.7462 17.0427 8.82907L17.0527 8.80924L17.0627 8.78992C17.3501 8.2412 17.845 7.13459 17.9522 6.50115C17.9653 6.42335 17.9811 6.34132 18 6.25439C17.5266 6.86317 17.0679 7.34484 17.0679 7.34484Z" fill="#B8AEC9"/>
</svg>
