<svg width="45" height="56" viewBox="0 0 45 56" fill="none" xmlns="http://www.w3.org/2000/svg">
<path d="M22.5002 12C25.814 12 28.5002 9.31371 28.5002 6C28.5002 2.68629 25.814 0 22.5002 0C19.1865 0 16.5002 2.68629 16.5002 6C16.5002 9.31371 19.1865 12 22.5002 12Z" fill="white"/>
<path d="M42.0793 13.5034H2.92067C2.14606 13.5034 1.40318 13.8143 0.855445 14.3676C0.307713 14.921 0 15.6715 0 16.4541C0 17.2366 0.307713 17.9871 0.855445 18.5405C1.40318 19.0938 2.14606 19.4047 2.92067 19.4047H13.9413C14.6888 19.4047 15.5639 19.7424 16.0594 21.044C16.6381 22.5553 16.3547 25.4743 15.9977 27.7354L15.5304 30.4074C15.5313 30.4143 15.5306 30.4214 15.5283 30.428C15.5261 30.4346 15.5223 30.4407 15.5174 30.4456L11.7746 51.9537C11.6389 52.7344 11.8148 53.5377 12.2638 54.1877C12.7129 54.8378 13.3985 55.2817 14.1707 55.4223C14.5524 55.4905 14.9438 55.4815 15.3221 55.3956C15.7003 55.3098 16.058 55.1489 16.3742 54.9222C16.6904 54.6956 16.9589 54.4078 17.1641 54.0755C17.3693 53.7431 17.5071 53.373 17.5695 52.9864L20.1559 38.0364C20.1559 38.0364 20.9856 34.4858 22.5 34.4858C24.0393 34.4858 24.8517 38.0364 24.8517 38.0364L27.4381 52.9995C27.5007 53.3895 27.6394 53.763 27.8463 54.0982C28.0532 54.4334 28.3241 54.7237 28.6431 54.9521C28.9622 55.1805 29.3231 55.3425 29.7047 55.4286C30.0864 55.5147 30.4812 55.5231 30.8661 55.4535C31.251 55.3839 31.6184 55.2376 31.9467 55.0231C32.2751 54.8086 32.5579 54.5302 32.7787 54.2041C32.9995 53.8781 33.1539 53.5109 33.2328 53.1239C33.3117 52.737 33.3136 52.3381 33.2383 51.9504L29.4945 30.4423C29.4953 30.4355 29.4946 30.4285 29.4926 30.4219C29.4905 30.4153 29.4871 30.4093 29.4826 30.4041L29.0142 27.7321C28.6572 25.471 28.3738 22.5521 28.9525 21.0407C29.4458 19.7424 30.349 19.4014 31.0381 19.4014H42.0793C42.8539 19.4014 43.5968 19.0906 44.1446 18.5372C44.6923 17.9838 45 17.2333 45 16.4508C45 15.6682 44.6923 14.9177 44.1446 14.3643C43.5968 13.811 42.8539 13.5001 42.0793 13.5001V13.5034Z" fill="white"/>
</svg>
