<svg width="22" height="22" viewBox="0 0 22 22" fill="none" xmlns="http://www.w3.org/2000/svg">
<path d="M8.42452 20.3335C8.51941 20.5369 8.68237 20.7613 8.85694 20.9168C9.07027 21.1069 9.33787 21.2434 9.62165 21.3542C9.81977 21.4315 10.0821 21.5005 10.2946 21.5425C10.5147 21.586 10.7859 21.59 11.0415 21.5917C11.4958 21.5946 11.855 21.5586 12.2612 21.4671C12.5172 21.4094 12.7605 21.3447 12.9584 21.2707C13.332 21.1312 13.5714 20.9731 13.6226 20.8688C13.5886 20.6942 13.5351 20.4193 13.496 20.1723C13.4546 19.911 13.4281 19.6778 13.4113 19.5053C13.3641 19.022 13.3986 18.6832 13.47 18.1232C13.5752 17.2985 13.7582 16.9251 14.0243 16.4386C14.2785 15.9739 14.696 15.3254 15.0163 14.9086C15.3502 14.474 16.182 13.6279 16.4855 13.3134C16.5889 13.346 16.7885 13.4164 17.0977 13.4831C17.3334 13.534 17.6079 13.5945 17.9546 13.5888C18.7803 13.5754 19.0834 13.4229 19.5689 13.1182C20.0093 12.8418 20.4359 12.2807 20.6636 11.7399C20.8387 11.3241 20.8978 10.8987 20.8335 10.397C20.7903 10.0596 20.6885 9.65918 20.6062 9.39412C20.5168 9.10581 20.3738 8.79531 20.2532 8.56011C20.2532 8.56011 20.7646 7.97014 20.9738 7.47416C21.1539 7.04705 21.244 6.49501 21.2155 6.1485C21.186 5.78886 20.8928 5.12491 20.7054 4.88651C20.4586 4.57243 20.2176 4.24706 19.9104 3.98984C19.6092 3.73771 19.2669 3.52967 18.9073 3.37196C18.5346 3.20855 18.0871 3.10992 17.7323 3.04113C17.6838 2.75497 17.6137 2.55483 17.4234 2.20818C17.1862 1.76314 16.9205 1.55936 16.503 1.24221C15.985 0.848716 15.2605 0.439466 14.5516 0.372803C14.2461 0.344083 13.798 0.326589 13.2321 0.43805C12.74 0.534964 12.2533 0.725778 11.8826 0.907167C11.1498 0.61163 10.4598 0.641355 9.9134 0.77958C9.45267 0.89614 9.35352 0.969158 8.92964 1.20883C8.51462 1.37967 8.05992 1.78578 7.70503 2.25898C6.41377 2.27311 5.33153 2.7085 4.55907 3.12937C3.68043 3.60809 2.88328 4.53849 2.56713 5.13366C2.21426 5.79792 1.85695 6.73998 2.11922 8.21106C0.197546 9.34728 0.360437 11.2212 1.41105 12.2843C2.33244 13.2166 3.88038 13.5291 5.35379 13.4064C5.78549 13.8597 7.41268 15.9034 7.41268 15.9034C7.41268 15.9034 9.05416 17.8203 8.42452 20.3335ZM6.75703 12.4877C6.98852 12.2641 7.18921 11.9423 7.34524 11.6957C7.51721 11.7083 7.87029 11.7376 8.2181 11.7277C8.56686 11.7178 8.93707 11.6727 9.08625 11.589C9.12551 11.714 9.3959 12.749 9.40316 13.3821C9.41269 14.2122 9.38701 14.3589 9.24786 14.6478C9.17428 14.681 9.10304 14.6948 9.01402 14.6611C8.69694 14.5409 8.17218 14.133 7.79711 13.7706C7.21631 13.2093 6.75703 12.4877 6.75703 12.4877ZM13.3326 12.4272C13.3195 12.5277 13.3058 12.8894 13.349 13.2062C13.3929 13.5281 13.4362 13.8272 13.5552 13.9451C13.9817 13.8759 14.2835 13.6082 14.5435 13.4211C14.5435 13.4211 15.3878 12.785 15.5513 12.6384C15.4307 12.5251 15.2629 12.2615 15.2043 12.1033C15.2043 12.1033 14.6151 12.2649 14.3191 12.3211C13.9461 12.395 13.509 12.4226 13.3326 12.4272Z" fill="#EBF2EF" fill-opacity="0.2"/>
</svg>
