<svg width="21" height="21" viewBox="0 0 21 21" fill="none" xmlns="http://www.w3.org/2000/svg">
<path d="M1.75 10.5C1.75 7.20017 1.75 5.55026 2.77512 4.52512C3.80026 3.5 5.45017 3.5 8.75 3.5H12.25C15.5498 3.5 17.1998 3.5 18.2248 4.52512C19.25 5.55026 19.25 7.20017 19.25 10.5V12.25C19.25 15.5498 19.25 17.1998 18.2248 18.2248C17.1998 19.25 15.5498 19.25 12.25 19.25H8.75C5.45017 19.25 3.80026 19.25 2.77512 18.2248C1.75 17.1998 1.75 15.5498 1.75 12.25V10.5Z" stroke="#8878A5"/>
<path opacity="0.5" d="M6.125 3.5V2.1875" stroke="#8878A5" stroke-linecap="round"/>
<path opacity="0.5" d="M14.875 3.5V2.1875" stroke="#8878A5" stroke-linecap="round"/>
<path opacity="0.5" d="M1.75 7.875H19.25" stroke="#8878A5" stroke-linecap="round"/>
<path d="M7.875 12.6875L9.1875 11.375V14.875" stroke="#8878A5" stroke-linecap="round" stroke-linejoin="round"/>
<path d="M11.375 14V12.25C11.375 11.7667 11.7667 11.375 12.25 11.375C12.7333 11.375 13.125 11.7667 13.125 12.25V14C13.125 14.4833 12.7333 14.875 12.25 14.875C11.7667 14.875 11.375 14.4833 11.375 14Z" stroke="#8878A5" stroke-linecap="round"/>
</svg>
