<svg width="25" height="25" viewBox="0 0 25 25" fill="none" xmlns="http://www.w3.org/2000/svg">
<path d="M11.5 24.6666C17.8513 24.6666 23 19.5179 23 13.1666C23 6.81535 17.8513 1.66663 11.5 1.66663C5.14873 1.66663 0 6.81535 0 13.1666C0 19.5179 5.14873 24.6666 11.5 24.6666Z" fill="white"/>
<path d="M22.5 13.1666C22.5 19.2418 17.5751 24.1666 11.5 24.1666C5.42487 24.1666 0.5 19.2418 0.5 13.1666C0.5 7.09149 5.42487 2.16663 11.5 2.16663C17.5751 2.16663 22.5 7.09149 22.5 13.1666Z" stroke="#5B9279" stroke-opacity="0.6"/>
<path d="M4.92847 11.5238L10.2085 15.4837C10.9253 16.0214 11.9408 15.8854 12.491 15.1781L22.9999 1.66663" fill="white"/>
<path d="M4.92847 11.5238L10.2085 15.4837C10.9253 16.0214 11.9408 15.8854 12.491 15.1781L22.9999 1.66663" stroke="#5B9279" stroke-width="3" stroke-linecap="round"/>
</svg>
