<svg width="24" height="23" viewBox="0 0 24 23" fill="none" xmlns="http://www.w3.org/2000/svg">
<path d="M1.69629 3.70186C-0.899142 6.90695 -0.405787 11.6005 2.79925 14.1958C5.39343 16.2969 11.2626 18.3434 14.8041 17.1964L16.356 18.4535C15.8087 19.6478 16.1016 21.1277 17.1938 22.0121C18.4753 23.0503 20.3535 22.8535 21.3917 21.5709C21.7227 21.1624 21.9356 20.6741 22.0144 20.1549C22.5054 19.9699 22.9388 19.6607 23.2698 19.2517C24.3058 17.9723 24.1075 16.0897 22.8286 15.054C21.7499 14.1807 20.2413 14.1849 19.174 14.9746L17.6211 13.7172C18.006 10.0153 14.7851 4.70005 12.1903 2.59884C8.98508 0.00333538 4.29165 0.496859 1.69629 3.70186ZM18.7414 16.5445C19.0615 16.8039 19.5313 16.7545 19.7907 16.4342C20.3086 15.7951 21.25 15.6962 21.8895 16.2136C22.5286 16.7311 22.6286 17.6726 22.1102 18.3127C21.8185 18.6726 21.4451 18.7978 21.1832 18.839C20.8058 18.8987 20.5343 19.2335 20.5544 19.6153C20.5683 19.88 20.5237 20.2716 20.2322 20.6319C19.7132 21.2722 18.7756 21.3724 18.133 20.8525C17.5137 20.351 17.411 19.3732 17.9125 18.7539C18.1722 18.4331 18.1217 17.9633 17.8022 17.7046L16.2398 16.4391C16.4339 16.2816 16.6131 16.1069 16.7723 15.9103C16.9316 15.7136 17.0653 15.502 17.179 15.2792L18.7414 16.5445ZM13.7628 12.5131C14.083 12.7724 14.1324 13.2423 13.8731 13.5625C13.6138 13.8828 13.1439 13.9321 12.8237 13.6728C12.5035 13.4135 12.4541 12.9437 12.7134 12.6234C12.9728 12.3032 13.4426 12.2538 13.7628 12.5131ZM7.24575 11.0761C7.56599 11.3354 7.61537 11.8053 7.35604 12.1255C7.09672 12.4457 6.62689 12.4951 6.30664 12.2358C5.9864 11.9765 5.93701 11.5066 6.19634 11.1864C6.45572 10.8661 6.9255 10.8168 7.24575 11.0761ZM11.0022 6.43725C11.3225 6.69658 11.3718 7.16641 11.1125 7.48665C10.8532 7.8069 10.3834 7.85628 10.0631 7.59695C9.74286 7.33762 9.69348 6.86775 9.95281 6.54755C10.2122 6.2273 10.682 6.17792 11.0022 6.43725ZM5.64486 5.93934C5.9651 6.19866 6.01448 6.6685 5.75515 6.98874C5.49582 7.30898 5.02599 7.35836 4.70575 7.09904C4.38551 6.83971 4.33612 6.36988 4.59545 6.04963C4.85478 5.72939 5.32461 5.68001 5.64486 5.93934Z" fill="#EBF2EF" fill-opacity="0.2"/>
</svg>
