<svg width="52" height="52" viewBox="0 0 52 52" fill="none" xmlns="http://www.w3.org/2000/svg">
<path fill-rule="evenodd" clip-rule="evenodd" d="M26 0C27.0018 0 27.814 0.81214 27.814 1.81395V2.42205C28.0829 2.42612 28.3124 2.43492 28.5265 2.45386C32.9046 2.841 36.3748 6.31139 36.7621 10.6894C36.7974 11.0895 36.7974 11.5429 36.7974 12.2087V15.167C36.7974 24.5253 29.6768 32.2203 20.5582 33.1301V38.0931C20.5582 43.77 25.1603 48.3721 30.8372 48.3721H32.9714C35.9949 48.3721 38.6365 46.7234 40.0417 44.2743C36.4489 43.0681 33.8605 39.6734 33.8605 35.6743C33.8605 30.6651 37.9211 26.6045 42.9302 26.6045C47.9394 26.6045 52 30.6651 52 35.6743C52 40.3675 48.4352 44.2281 43.8658 44.6963C42.106 48.9809 37.8932 52 32.9714 52H30.8372C23.1567 52 16.9303 45.7736 16.9303 38.0931V33.1335C7.42923 32.221 3.06414e-05 24.2162 3.06414e-05 14.476L6.42248e-06 12.2088C-6.61356e-05 11.543 -0.000114481 11.0896 0.0352697 10.6894C0.422416 6.31139 3.89285 2.841 8.27088 2.45386C8.64739 2.42055 9.07101 2.41864 9.67445 2.41857V1.81395C9.67445 0.81214 10.4866 0 11.4884 0C12.4902 0 13.3024 0.81214 13.3024 1.81395V6.65113C13.3024 7.65294 12.4902 8.46508 11.4884 8.46508C10.4866 8.46508 9.67445 7.65294 9.67445 6.65113V6.04653C9.03736 6.04697 8.78904 6.05006 8.59043 6.06765C5.96363 6.29993 3.88136 8.38217 3.64908 11.009C3.6297 11.2281 3.62794 11.5077 3.62794 12.3031V14.476C3.62794 22.8245 10.3957 29.5922 18.7442 29.5922C26.7111 29.5922 33.1695 23.1338 33.1695 15.167V12.3031C33.1695 11.5077 33.1678 11.2281 33.1482 11.009C32.916 8.38217 30.8338 6.29993 28.207 6.06765C28.1047 6.05858 27.9891 6.05338 27.814 6.0504V6.65113C27.814 7.65294 27.0018 8.46508 26 8.46508C24.9982 8.46508 24.1861 7.65294 24.1861 6.65113V1.81395C24.1861 0.81214 24.9982 0 26 0ZM37.4884 35.6743C37.4884 32.6689 39.9249 30.2324 42.9302 30.2324C45.9356 30.2324 48.3721 32.6689 48.3721 35.6743C48.3721 38.6796 45.9356 41.1161 42.9302 41.1161C39.9249 41.1161 37.4884 38.6796 37.4884 35.6743Z" fill="white"/>
</svg>
