<svg width="18" height="16" viewBox="0 0 18 16" fill="none" xmlns="http://www.w3.org/2000/svg">
<path fill-rule="evenodd" clip-rule="evenodd" d="M16.4173 7.35772L15.7262 5.04477C14.9036 5.23293 14.0813 4.83778 13.6744 4.00625C10.8118 4.77909 7.12302 4.21509 4.60203 5.56265C4.86049 6.5844 4.43725 7.39191 3.84446 7.87623L4.47638 10.0214C5.41765 9.77723 5.97434 10.3104 6.27877 11.0194C7.19459 10.6996 8.09769 10.509 8.97169 10.3866C7.25933 9.17283 7.13304 5.51175 9.7924 5.2579C11.8531 5.06115 12.6587 6.87149 12.6468 8.37024C11.3247 8.79428 10.747 10.2122 11.0376 11.4226C8.77812 11.5461 6.44036 11.6868 4.21649 13.3095L2.14435 6.07543C5.29518 2.54233 8.52523 4.39991 13.2343 2.93074L13.0283 2.19846C9.16382 3.58588 4.10786 1.64925 1.19751 5.86198L2.94709 11.735L1.98689 12.3326L0 5.41711C4.12599 -0.245069 9.67056 2.9196 13.6666 0.598389L14.279 2.55665C14.8018 2.34511 15.3422 2.08935 15.9023 1.77808L18 9.08201C17.3127 9.78168 16.5852 10.2599 15.8277 10.5917C15.3274 9.56378 15.5301 7.88148 16.4173 7.35772ZM10.4159 12.3614C12.3474 12.3614 12.3958 15.4015 10.55 15.4015C8.36045 15.4015 8.52157 12.3614 10.4159 12.3614ZM13.4311 9.10586C15.5931 9.10586 15.6475 12.5091 13.5809 12.5091C11.13 12.5093 11.3104 9.10586 13.4311 9.10586Z" fill="white"/>
</svg>
