<svg width="28" height="28" viewBox="0 0 28 28" fill="none" xmlns="http://www.w3.org/2000/svg">
<path fill-rule="evenodd" clip-rule="evenodd" d="M23.1637 11.4081L25.9897 8.58205C26.8478 7.72408 27.2767 7.29511 27.506 6.83234C27.9423 5.95187 27.9423 4.91814 27.506 4.03766C27.2767 3.57491 26.8478 3.14592 25.9897 2.28795C25.1318 1.42999 24.7027 1.00101 24.24 0.771688C23.3596 0.335381 22.3258 0.335381 21.4454 0.771688C20.9826 1.00101 20.5537 1.42999 19.6956 2.28795L16.834 5.14966C18.3506 7.74692 20.5318 9.91139 23.1637 11.4081ZM14.5453 7.43828L3.73443 18.2492C3.06559 18.9181 2.73117 19.2524 2.51128 19.6633C2.29141 20.0741 2.19865 20.5378 2.01315 21.4654L1.0448 26.3072C0.940133 26.8305 0.887798 27.0922 1.03667 27.2411C1.18554 27.3899 1.44722 27.3375 1.97059 27.2329L6.81229 26.2645C7.73982 26.079 8.20357 25.9863 8.61441 25.7663C9.02526 25.5465 9.35968 25.2122 10.0285 24.5432L20.8692 13.7026C18.3174 12.1045 16.159 9.9609 14.5453 7.43828Z" fill="white"/>
</svg>
