<svg width="30" height="22" viewBox="0 0 30 22" fill="none" xmlns="http://www.w3.org/2000/svg">
<path d="M27.4963 11.5433L29.6872 5.88384C29.7356 5.7574 29.6952 5.61478 29.5885 5.53322C29.4809 5.45069 29.3329 5.44983 29.2244 5.52961L23.5371 9.72471C22.313 9.58031 20.9893 6.65595 15.1621 5.20499L16.8651 4.96199C17.1368 4.92342 17.3754 4.76467 17.517 4.52884C17.6578 4.29387 17.6847 4.00782 17.5915 3.75042L16.7351 1.39551C16.6301 1.10763 16.388 0.891544 16.0903 0.820663C15.7926 0.749783 15.4796 0.833233 15.2563 1.04306L11.358 4.71267C5.0511 4.8507 0.322418 9.92731 0.322418 11.5433C0.536725 12.8983 3.12843 16.0128 7.05178 17.5266C7.46162 16.9544 7.79249 16.402 8.05708 15.8756C8.82919 14.3359 9.04619 13.0131 9.04619 12.1029C9.04619 11.7361 9.01032 11.4366 8.96458 11.2267C8.89106 10.8797 9.11168 10.5389 9.45868 10.4654C9.80573 10.3909 10.1465 10.6125 10.2209 10.9586C10.2873 11.2716 10.3294 11.6536 10.3294 12.1029C10.3294 13.2131 10.0667 14.7323 9.20402 16.4514C8.96188 16.9347 8.66952 17.4342 8.3243 17.9445C9.67304 18.3122 11.1482 18.4781 12.714 18.3292L13.8762 20.5936C13.9937 20.8231 14.2026 20.9917 14.4519 21.0581C14.7012 21.1236 14.9667 21.0814 15.1837 20.9397L16.0706 20.3595C16.3154 20.1999 16.4669 19.9335 16.4822 19.643C16.4956 19.3524 16.3709 19.0718 16.1441 18.8888L14.9559 17.9319C20.9588 16.5007 22.2995 13.5082 23.5371 13.362L29.2244 17.5571C29.3329 17.6369 29.4809 17.636 29.5885 17.5544C29.6952 17.4728 29.7356 17.3293 29.6872 17.2038L27.4963 11.5433ZM4.70853 11.9719C4.17672 11.9719 3.74541 11.5397 3.74541 11.0088C3.74541 10.477 4.17678 10.0457 4.70853 10.0457C5.24027 10.0457 5.67164 10.4771 5.67164 11.0088C5.67164 11.5397 5.24027 11.9719 4.70853 11.9719Z" fill="#EBF2EF" fill-opacity="0.2"/>
</svg>
