<svg width="24" height="36" viewBox="0 0 24 36" fill="none" xmlns="http://www.w3.org/2000/svg">
<path d="M13 1.5C13 1.10218 12.842 0.720644 12.5607 0.43934C12.2794 0.158035 11.8978 4.47035e-08 11.5 4.47035e-08C11.1022 4.47035e-08 10.7206 0.158035 10.4393 0.43934C10.158 0.720644 10 1.10218 10 1.5V11C10 11.2652 9.89464 11.5196 9.70711 11.7071C9.51957 11.8946 9.26522 12 9 12C8.73478 12 8.48043 11.8946 8.29289 11.7071C8.10536 11.5196 8 11.2652 8 11V1.5C8 1.30302 7.9612 1.10796 7.88582 0.925975C7.81044 0.743986 7.69995 0.578628 7.56066 0.43934C7.42137 0.300052 7.25601 0.189563 7.07403 0.114181C6.89204 0.0387986 6.69698 0 6.5 0C6.30302 0 6.10796 0.0387986 5.92597 0.114181C5.74399 0.189563 5.57863 0.300052 5.43934 0.43934C5.30005 0.578628 5.18956 0.743986 5.11418 0.925975C5.0388 1.10796 5 1.30302 5 1.5V11C5 11.2652 4.89464 11.5196 4.70711 11.7071C4.51957 11.8946 4.26522 12 4 12C3.73478 12 3.48043 11.8946 3.29289 11.7071C3.10536 11.5196 3 11.2652 3 11V1.5C3 1.10218 2.84196 0.720644 2.56066 0.43934C2.27936 0.158035 1.89782 4.47035e-08 1.5 4.47035e-08C1.10218 4.47035e-08 0.720644 0.158035 0.43934 0.43934C0.158035 0.720644 0 1.10218 0 1.5V10.5C0 10.627 0.0210001 10.749 0.0510001 10.867C0.0210001 11.074 0 11.284 0 11.5C0 13.816 1.75 17.457 4 17.942V33.5C4 34.163 4.26339 34.7989 4.73223 35.2678C5.20107 35.7366 5.83696 36 6.5 36C7.16304 36 7.79893 35.7366 8.26777 35.2678C8.73661 34.7989 9 34.163 9 33.5V17.942C11.25 17.457 13 13.816 13 11.5C13 11.284 12.979 11.074 12.949 10.867C12.979 10.749 13 10.627 13 10.5V1.5ZM21.5 4.47035e-08C21.396 4.47035e-08 21.296 0.019 21.194 0.031C21.13 0.021 21.067 4.47035e-08 21 4.47035e-08C18.791 4.47035e-08 16 5.477 16 11C16 15.658 17.275 19.56 19 20.672V33.5C19 34.163 19.2634 34.7989 19.7322 35.2678C20.2011 35.7366 20.837 36 21.5 36C22.163 36 22.7989 35.7366 23.2678 35.2678C23.7366 34.7989 24 34.163 24 33.5V2.5C24 1.83696 23.7366 1.20107 23.2678 0.732233C22.7989 0.263392 22.163 4.47035e-08 21.5 4.47035e-08Z" fill="white"/>
</svg>
