<svg width="39" height="58" viewBox="0 0 39 58" fill="none" xmlns="http://www.w3.org/2000/svg">
<path d="M21.125 2.41667C21.125 1.77573 20.8682 1.16104 20.4111 0.707825C19.954 0.254612 19.334 7.20223e-08 18.6875 7.20223e-08C18.041 7.20223e-08 17.421 0.254612 16.9639 0.707825C16.5068 1.16104 16.25 1.77573 16.25 2.41667V17.7222C16.25 18.1495 16.0788 18.5593 15.774 18.8615C15.4693 19.1636 15.056 19.3333 14.625 19.3333C14.194 19.3333 13.7807 19.1636 13.476 18.8615C13.1712 18.5593 13 18.1495 13 17.7222V2.41667C13 2.09931 12.937 1.78505 12.8145 1.49185C12.692 1.19864 12.5124 0.932234 12.2861 0.707825C12.0597 0.483417 11.791 0.305407 11.4953 0.183958C11.1996 0.0625089 10.8826 0 10.5625 0C10.2424 0 9.92544 0.0625089 9.62971 0.183958C9.33398 0.305407 9.06527 0.483417 8.83893 0.707825C8.61258 0.932234 8.43304 1.19864 8.31054 1.49185C8.18805 1.78505 8.125 2.09931 8.125 2.41667V17.7222C8.125 18.1495 7.95379 18.5593 7.64905 18.8615C7.3443 19.1636 6.93098 19.3333 6.5 19.3333C6.06902 19.3333 5.6557 19.1636 5.35095 18.8615C5.04621 18.5593 4.875 18.1495 4.875 17.7222V2.41667C4.875 1.77573 4.61819 1.16104 4.16107 0.707825C3.70395 0.254612 3.08397 7.20223e-08 2.4375 7.20223e-08C1.79103 7.20223e-08 1.17105 0.254612 0.713927 0.707825C0.256807 1.16104 0 1.77573 0 2.41667V16.9167C0 17.1213 0.0341252 17.3178 0.0828752 17.5079C0.0341252 17.8414 0 18.1798 0 18.5278C0 22.2591 2.84375 28.1252 6.5 28.9066V53.9722C6.5 55.0405 6.92801 56.0649 7.68988 56.8203C8.45175 57.5757 9.48506 58 10.5625 58C11.6399 58 12.6733 57.5757 13.4351 56.8203C14.197 56.0649 14.625 55.0405 14.625 53.9722V28.9066C18.2812 28.1252 21.125 22.2591 21.125 18.5278C21.125 18.1798 21.0909 17.8414 21.0421 17.5079C21.0909 17.3178 21.125 17.1213 21.125 16.9167V2.41667ZM34.9375 7.20223e-08C34.7685 7.20223e-08 34.606 0.0306112 34.4403 0.0499445C34.3363 0.0338334 34.2339 7.20223e-08 34.125 7.20223e-08C30.5354 7.20223e-08 26 8.82406 26 17.7222C26 25.2268 28.0719 31.5133 30.875 33.3049V53.9722C30.875 55.0405 31.303 56.0649 32.0649 56.8203C32.8267 57.5757 33.8601 58 34.9375 58C36.0149 58 37.0483 57.5757 37.8101 56.8203C38.572 56.0649 39 55.0405 39 53.9722V4.02778C39 2.95954 38.572 1.93506 37.8101 1.17971C37.0483 0.424354 36.0149 7.20223e-08 34.9375 7.20223e-08Z" fill="white"/>
</svg>
