<svg width="175" height="187" viewBox="0 0 175 187" fill="none" xmlns="http://www.w3.org/2000/svg">
<path d="M58.4375 0.5L46.8125 3.40625V12.125H58.4375V0.5ZM58.4375 12.125V23.75H46.8125V12.125H46.7427C32.1185 12.2994 21.4119 11.7762 12.6583 16.6006C8.28725 19.007 4.81138 23.1106 2.89325 28.2024C0.98675 33.2941 0.3125 39.3624 0.3125 47V140C0.3125 147.649 0.986751 153.706 2.90488 158.798C4.81138 163.901 8.28725 167.97 12.6699 170.376C21.4119 175.212 32.1185 174.701 46.7427 174.875H104.938V163.25H46.8125C32.165 163.076 22.5511 162.552 18.2964 160.204C16.1574 159.042 14.9251 157.74 13.7975 154.717C12.6699 151.695 11.9375 146.882 11.9375 140V81.875C11.9375 74.993 12.6699 70.1803 13.7975 67.1578C14.9368 64.1353 16.1574 62.8449 18.2964 61.6708C22.5627 59.3109 32.1882 58.7994 46.8823 58.625H116.562C131.21 58.7994 140.824 59.3225 145.079 61.6708C147.218 62.8333 148.45 64.1353 149.578 67.1578C150.705 70.1803 151.438 81.875 151.438 81.875V116.75H163.062V47C163.062 39.3508 162.365 33.2941 160.447 28.2024C158.69 23.2992 155.239 19.1849 150.717 16.6006C141.963 11.7646 131.256 12.2994 116.632 12.125H116.562V23.75H104.938V12.125H58.4375ZM104.938 12.125H116.562V0.5L104.938 3.40625V12.125ZM139.812 128.375V151.625H116.562V163.25H139.812V186.5H151.438V163.25H174.688V151.625H151.438V128.375H139.812Z" fill="#E6E6E6"/>
</svg>
