<svg width="21" height="19" viewBox="0 0 21 19" fill="none" xmlns="http://www.w3.org/2000/svg">
<path fill-rule="evenodd" clip-rule="evenodd" d="M7.30982 16.5262C4.2204 14.117 0 10.1373 0 6.37442C0 0.0882693 5.77517 -2.25867 10.5 2.59731C15.2248 -2.25867 21 0.0882698 21 6.37439C21 10.1374 16.7796 14.117 13.6902 16.5262C12.2916 17.6169 11.5923 18.1622 10.5 18.1622C9.40768 18.1622 8.70838 17.6169 7.30982 16.5262ZM15.225 3.47218C15.6599 3.47218 16.0125 3.83092 16.0125 4.27345V5.60893H17.325C17.7599 5.60893 18.1125 5.96766 18.1125 6.4102C18.1125 6.85272 17.7599 7.21147 17.325 7.21147H16.0125V8.5469C16.0125 8.98942 15.6599 9.34817 15.225 9.34817C14.7901 9.34817 14.4375 8.98942 14.4375 8.5469V7.21147H13.125C12.6901 7.21147 12.3375 6.85272 12.3375 6.4102C12.3375 5.96766 12.6901 5.60893 13.125 5.60893H14.4375V4.27345C14.4375 3.83092 14.7901 3.47218 15.225 3.47218Z" fill="white"/>
</svg>
