<svg width="20" height="20" viewBox="0 0 20 20" fill="none" xmlns="http://www.w3.org/2000/svg">
<path d="M12.4136 2.39736C12.4136 1.44673 11.64 0.673218 10.6894 0.673218H9.31008C8.35941 0.673218 7.58594 1.44673 7.58594 2.39736V5.50083H12.4136V2.39736ZM11.0342 3.08705C11.0342 3.27767 10.88 3.43189 10.6894 3.43189H9.31004C9.11941 3.43189 8.9652 3.27767 8.9652 3.08705V2.39736C8.9652 2.20677 9.11941 2.05251 9.31004 2.05251H10.6894C10.88 2.05251 11.0342 2.20677 11.0342 2.39736V3.08705Z" fill="white"/>
<path d="M19.2174 4.84387H13.1036V5.49918C13.1036 5.88204 12.7934 6.18883 12.4139 6.18883H7.58629C7.20711 6.18883 6.8966 5.88204 6.8966 5.49918V4.84387H0.782773C0.348359 4.84387 0 5.19579 0 5.62684V18.5475C0 18.9786 0.348359 19.3268 0.782773 19.3268H19.2174C19.6484 19.3268 20 18.9786 20 18.5475V5.62684C20 5.19579 19.6484 4.84387 19.2174 4.84387ZM4.60469 10.6242C4.55633 10.2948 4.48984 9.64391 4.66191 9.31723C4.66191 9.31723 4.54441 9.10375 4.54441 8.82188C5.03926 8.89227 6.6193 7.87833 7.0909 8.70403C7.77434 8.63301 8.18316 9.59743 7.87285 10.6242C7.87285 10.6242 8.25605 10.6063 8.10285 11.1431C7.95941 11.6469 7.84406 11.7624 7.64238 11.8341C7.55582 12.3237 7.41051 12.7561 7.21906 12.969C7.21906 13.2242 7.21906 13.4104 7.21906 13.5596C7.21906 13.5744 7.22191 13.5906 7.22613 13.6068L6.55566 13.929V14.4028H5.92461V13.929L5.25379 13.6061C5.25801 13.5899 5.26086 13.5744 5.26086 13.5596C5.26086 13.4104 5.26086 13.2242 5.26086 12.969C5.06941 12.7561 4.92477 12.3237 4.83793 11.8341C4.63586 11.7623 4.52086 11.6469 4.37707 11.1431C4.22973 10.6279 4.57625 10.6242 4.60469 10.6242ZM6.24027 16.8739C3.97633 16.8739 2.4202 16.5806 2.39598 16.2973C2.29816 15.1181 3.82547 14.4883 4.44762 14.2698C4.50859 14.2479 4.5793 14.2142 4.6527 14.1731L5.84008 15.8155L5.92461 14.7395H6.55566L6.6402 15.8155L7.82723 14.1731C7.89863 14.2122 7.96832 14.2455 8.03266 14.2698C8.65023 14.5005 10.1821 15.117 10.0839 16.2973C10.06 16.5806 8.50391 16.8739 6.24027 16.8739ZM14.5436 16.0879H12.4748V15.3983H14.5436V16.0879ZM16.6126 13.0993H12.4748V12.4096H16.6127V13.0993H16.6126ZM16.6126 10.1106H12.4748V9.42094H16.6127V10.1106H16.6126Z" fill="white"/>
</svg>
