<svg width="23" height="23" viewBox="0 0 23 23" fill="none" xmlns="http://www.w3.org/2000/svg">
<path fill-rule="evenodd" clip-rule="evenodd" d="M11.5 17.7727C14.9643 17.7727 17.7727 14.9643 17.7727 11.5C17.7727 8.03569 14.9643 5.22729 11.5 5.22729C8.03569 5.22729 5.22729 8.03569 5.22729 11.5C5.22729 14.9643 8.03569 17.7727 11.5 17.7727ZM11.5 15.6818C13.8095 15.6818 15.6818 13.8095 15.6818 11.5C15.6818 9.19047 13.8095 7.3182 11.5 7.3182C9.19047 7.3182 7.3182 9.19047 7.3182 11.5C7.3182 13.8095 9.19047 15.6818 11.5 15.6818Z" fill="white"/>
<path d="M17.7727 4.18188C17.1953 4.18188 16.7273 4.64996 16.7273 5.22734C16.7273 5.80472 17.1953 6.27279 17.7727 6.27279C18.3502 6.27279 18.8182 5.80472 18.8182 5.22734C18.8182 4.64996 18.3502 4.18188 17.7727 4.18188Z" fill="white"/>
<path fill-rule="evenodd" clip-rule="evenodd" d="M0.683685 3.42497C0 4.76678 0 6.52331 0 10.0364V12.9636C0 16.4767 0 18.2332 0.683685 19.575C1.28507 20.7553 2.24467 21.7149 3.42497 22.3163C4.76678 23 6.52331 23 10.0364 23H12.9636C16.4767 23 18.2332 23 19.575 22.3163C20.7553 21.7149 21.7149 20.7553 22.3163 19.575C23 18.2332 23 16.4767 23 12.9636V10.0364C23 6.52331 23 4.76678 22.3163 3.42497C21.7149 2.24467 20.7553 1.28507 19.575 0.683685C18.2332 0 16.4767 0 12.9636 0H10.0364C6.52331 0 4.76678 0 3.42497 0.683685C2.24467 1.28507 1.28507 2.24467 0.683685 3.42497ZM12.9636 2.09091H10.0364C8.24533 2.09091 7.02781 2.09254 6.08672 2.16942C5.17002 2.24432 4.70124 2.38007 4.37422 2.5467C3.58736 2.94763 2.94763 3.58736 2.5467 4.37422C2.38007 4.70124 2.24432 5.17002 2.16942 6.08672C2.09254 7.02781 2.09091 8.24533 2.09091 10.0364V12.9636C2.09091 14.7547 2.09254 15.9721 2.16942 16.9133C2.24432 17.83 2.38007 18.2988 2.5467 18.6258C2.94763 19.4126 3.58736 20.0523 4.37422 20.4533C4.70124 20.6199 5.17002 20.7557 6.08672 20.8306C7.02781 20.9074 8.24533 20.9091 10.0364 20.9091H12.9636C14.7547 20.9091 15.9721 20.9074 16.9133 20.8306C17.83 20.7557 18.2988 20.6199 18.6258 20.4533C19.4126 20.0523 20.0523 19.4126 20.4533 18.6258C20.6199 18.2988 20.7557 17.83 20.8306 16.9133C20.9074 15.9721 20.9091 14.7547 20.9091 12.9636V10.0364C20.9091 8.24533 20.9074 7.02781 20.8306 6.08672C20.7557 5.17002 20.6199 4.70124 20.4533 4.37422C20.0523 3.58736 19.4126 2.94763 18.6258 2.5467C18.2988 2.38007 17.83 2.24432 16.9133 2.16942C15.9721 2.09254 14.7547 2.09091 12.9636 2.09091Z" fill="white"/>
</svg>
