<svg width="36" height="36" viewBox="0 0 36 36" fill="none" xmlns="http://www.w3.org/2000/svg">
<path d="M16.2515 33.6526C17.363 33.7766 18.2571 32.8408 18.2376 31.7226V31.7226C18.218 30.6044 17.2894 29.7316 16.1845 29.5583C14.5833 29.3071 13.0442 28.7246 11.6686 27.8398C9.72243 26.588 8.19115 24.7872 7.26843 22.6651C6.34571 20.5429 6.07299 18.1949 6.48476 15.9177C6.89653 13.6406 7.97429 11.5368 9.58176 9.87219C11.1892 8.2076 13.2542 7.05707 15.5156 6.56609C17.7769 6.0751 20.1331 6.2657 22.2861 7.1138C24.4391 7.9619 26.2923 9.4294 27.6113 11.3307C28.5435 12.6745 29.1793 14.1924 29.4863 15.7839C29.6981 16.882 30.6027 17.7797 31.7209 17.7602V17.7602C32.8391 17.7406 33.7431 16.8144 33.5804 15.7079C33.2284 13.3145 32.3282 11.0248 30.939 9.02224C29.1634 6.46276 26.6687 4.48729 23.7704 3.34561C20.8721 2.20394 17.7004 1.94736 14.6562 2.6083C11.6121 3.26925 8.83233 4.81804 6.66843 7.05882C4.50453 9.2996 3.0537 12.1317 2.49939 15.1971C1.94509 18.2624 2.31221 21.4233 3.55434 24.28C4.79646 27.1367 6.8578 29.5609 9.47769 31.2461C11.5275 32.5646 13.8473 33.3843 16.2515 33.6526Z" fill="white"/>
</svg>
