<svg width="56" height="57" viewBox="0 0 56 57" fill="none" xmlns="http://www.w3.org/2000/svg">
<path d="M36.1986 32.5818C41.8757 24.7627 41.195 13.7299 34.1503 6.684C26.3485 -1.117 13.653 -1.117 5.85218 6.684C-1.95073 14.4869 -1.95073 27.1803 5.85218 34.9833C12.8969 42.0281 23.9296 42.7088 31.7477 37.0327L33.2945 38.5774L37.7444 34.1275L36.1986 32.5818ZM30.2703 31.1043C24.5992 36.7743 15.4032 36.7754 9.73122 31.1043C4.05931 25.4323 4.05931 16.2353 9.73122 10.5642C15.4034 4.89308 24.5992 4.89308 30.2703 10.5642C35.9422 16.2353 35.9422 25.4323 30.2703 31.1043Z" fill="white"/>
<path d="M11.6013 13.9604C9.15468 17.9352 8.95175 23.4035 10.9908 27.6274C11.1844 28.0261 11.597 28.1534 11.9132 27.9085C12.2285 27.6638 12.3283 27.1419 12.1356 26.7433V26.7442C10.3839 23.1222 10.559 18.4076 12.658 15.0016C12.8863 14.6328 12.8339 14.0992 12.5413 13.8127C12.2497 13.5242 11.8279 13.5905 11.6013 13.9604Z" fill="white"/>
<path d="M54.905 49.0754L40.2791 36.0332L35.1997 41.1037L48.2636 55.7052C49.592 57.4208 51.9841 57.1686 54.1334 55.0229C56.2818 52.8783 56.6246 50.4014 54.905 49.0754Z" fill="white"/>
</svg>
