<svg width="25" height="22" viewBox="0 0 25 22" fill="none" xmlns="http://www.w3.org/2000/svg">
<path d="M23.9638 5.20378C23.9638 5.20378 18.8256 12.2101 12.5006 12.2101C6.17565 12.2101 1.03744 5.20378 1.03744 5.20378M5.08889 20.6176H19.9111C21.3423 20.6176 22.058 20.6176 22.6047 20.3122C23.0855 20.0435 23.4765 19.6148 23.7214 19.0875C24 18.488 24 17.7032 24 16.1336V5.48403C24 3.91448 24 3.12969 23.7214 2.5302C23.4765 2.00287 23.0855 1.57414 22.6047 1.30546C22.058 1 21.3423 1 19.9111 1H5.08889C3.65765 1 2.94202 1 2.39536 1.30546C1.91449 1.57414 1.52354 2.00287 1.27854 2.5302C1 3.12969 1 3.91447 1 5.48403V16.1336C1 17.7032 1 18.488 1.27854 19.0875C1.52354 19.6148 1.91449 20.0435 2.39536 20.3122C2.94202 20.6176 3.65764 20.6176 5.08889 20.6176Z" stroke="white" stroke-width="2" stroke-linecap="round" stroke-linejoin="round"/>
</svg>
