<svg width="21" height="25" viewBox="0 0 21 25" fill="none" xmlns="http://www.w3.org/2000/svg">
<path d="M16.9589 1.81121C16.1589 0.880607 11.6693 -1.36498 9.22499 1.16104C6.78063 3.687 9.37757 5.47162 10.3111 5.90116C11.2444 6.33069 13.911 6.98689 14.878 5.30293C15.1359 5.96187 14.9619 11.4429 13.4377 12.8365C12.6653 12.1023 11.5505 11.6413 10.3111 11.6413C9.29343 11.6413 8.36008 11.9521 7.63106 12.4697C6.66867 10.9295 4.84789 9.88952 2.75832 9.88952C1.75643 9.88952 0.816733 10.1296 0.00289456 10.5483V11.0868C0.0022226 11.0866 0 11.0861 0 11.0861V24.3144C0 24.3144 3.86668 24.5139 4.17598 20.0601C4.17588 20.0599 4.17572 20.0596 4.17572 20.0594C5.11636 21.4214 8.11337 22.4581 9.96016 22.397C12.861 22.301 16.7155 22.1742 19.9808 19.053C20.2826 18.7536 20.5246 18.4 20.689 18.0088C20.689 18.0087 20.689 18.0087 20.689 18.0086C22.1996 14.8752 17.7588 2.74181 16.9589 1.81121Z" fill="white"/>
</svg>
