<svg width="25" height="23" viewBox="0 0 25 23" fill="none" xmlns="http://www.w3.org/2000/svg">
<path d="M16.6816 15.716L17.2495 15.153L15.9308 13.8306L15.363 14.3936L16.6816 15.716ZM19.1566 14.9171L21.5386 16.2084L22.4318 14.57L20.0498 13.2788L19.1566 14.9171ZM21.9972 18.7746L20.226 20.5307L21.5446 21.8531L23.3158 20.097L21.9972 18.7746ZM19.1467 21.0961C17.339 21.264 12.662 21.1143 7.59827 16.0937L6.2796 17.4161C11.8055 22.8949 17.0648 23.1624 19.3203 22.9528L19.1467 21.0961ZM7.59827 16.0937C2.77144 11.3081 1.97188 7.28297 1.87235 5.53674L0.00517265 5.64255C0.130426 7.84036 1.12047 12.301 6.2796 17.4161L7.59827 16.0937ZM9.31301 8.41027L9.67059 8.05572L8.35198 6.73334L7.99438 7.08788L9.31301 8.41027ZM9.95523 3.53635L8.38309 1.44228L6.88594 2.55986L8.45808 4.65395L9.95523 3.53635ZM3.0954 0.986486L1.13842 2.92677L2.45709 4.24915L4.41406 2.30887L3.0954 0.986486ZM8.6537 7.74908C7.99438 7.08788 7.99349 7.08877 7.99259 7.08966C7.99229 7.08996 7.99139 7.09087 7.99078 7.09148C7.98956 7.09271 7.98831 7.09395 7.98705 7.09523C7.98452 7.09781 7.9819 7.10048 7.97921 7.10326C7.97381 7.10885 7.9681 7.11489 7.96209 7.1214C7.95006 7.13442 7.93686 7.14931 7.92272 7.16613C7.89445 7.19976 7.86242 7.24117 7.82876 7.29072C7.76127 7.39004 7.68773 7.52136 7.62533 7.68651C7.498 8.02348 7.42974 8.4677 7.51532 9.01776C7.68269 10.0935 8.42566 11.5145 10.3289 13.4014L11.6475 12.079C9.86646 10.3131 9.44218 9.23848 9.36338 8.73187C9.32585 8.49077 9.36475 8.37211 9.37547 8.34401C9.38196 8.32663 9.38507 8.32485 9.37709 8.33672C9.37311 8.34253 9.3665 8.35162 9.35615 8.36386C9.35104 8.36999 9.34493 8.37693 9.33782 8.38466C9.33421 8.38853 9.33046 8.39259 9.32623 8.39686C9.32423 8.399 9.32211 8.40117 9.31987 8.40341C9.31875 8.40453 9.31762 8.40566 9.3165 8.4068C9.316 8.40738 9.31513 8.40825 9.31475 8.40853C9.31388 8.4094 9.31301 8.41027 8.6537 7.74908ZM10.3289 13.4014C12.2328 15.289 13.6645 16.0236 14.7451 16.189C15.2973 16.2734 15.7425 16.206 16.0802 16.0806C16.2458 16.019 16.3777 15.9465 16.4775 15.8799C16.5273 15.8466 16.569 15.8149 16.6028 15.7869C16.6197 15.773 16.6347 15.7599 16.6478 15.748C16.6544 15.742 16.6605 15.7364 16.6661 15.7311C16.669 15.7283 16.6716 15.7257 16.6742 15.7233C16.6755 15.722 16.6767 15.7208 16.678 15.7195C16.6786 15.7189 16.6796 15.718 16.6798 15.7178C16.6807 15.7169 16.6816 15.716 16.0223 15.0548C15.363 14.3936 15.3638 14.3928 15.3647 14.3919C15.365 14.3916 15.3658 14.3908 15.3665 14.3901C15.3676 14.389 15.3687 14.3879 15.3698 14.3868C15.3722 14.3847 15.3743 14.3826 15.3764 14.3804C15.3808 14.3763 15.3849 14.3726 15.3888 14.369C15.3965 14.362 15.4035 14.356 15.4097 14.351C15.4219 14.3408 15.431 14.3343 15.4367 14.3305C15.4482 14.3228 15.4459 14.3262 15.4274 14.3331C15.3969 14.3444 15.2746 14.3833 15.0287 14.3456C14.5134 14.2669 13.4281 13.8442 11.6475 12.079L10.3289 13.4014ZM8.38309 1.44228C7.11221 -0.25048 4.61316 -0.518332 3.0954 0.986486L4.41406 2.30887C5.07695 1.65162 6.25428 1.71852 6.88594 2.55986L8.38309 1.44228ZM1.87235 5.53674C1.84783 5.10645 2.04574 4.65698 2.45709 4.24915L1.13842 2.92677C0.468495 3.59098 -0.0581771 4.53123 0.00517265 5.64255L1.87235 5.53674ZM20.226 20.5307C19.8834 20.8704 19.516 21.0618 19.1467 21.0961L19.3203 22.9528C20.2362 22.8677 20.9866 22.4063 21.5446 21.8531L20.226 20.5307ZM9.67059 8.05572C10.8981 6.83871 10.9893 4.9137 9.95523 3.53635L8.45808 4.65395C8.96116 5.32402 8.88636 6.20352 8.35198 6.73334L9.67059 8.05572ZM21.5386 16.2084C22.5582 16.7611 22.7171 18.0608 21.9972 18.7746L23.3158 20.097C24.9869 18.4402 24.4716 15.6756 22.4318 14.57L21.5386 16.2084ZM17.2495 15.153C17.7283 14.6783 18.4989 14.5607 19.1566 14.9171L20.0498 13.2788C18.6988 12.5465 17.0221 12.7487 15.9308 13.8306L17.2495 15.153Z" fill="white"/>
</svg>
