<svg width="20" height="20" viewBox="0 0 20 20" fill="none" xmlns="http://www.w3.org/2000/svg">
<path d="M13.9513 12.6735L13.4452 13.1766C13.4452 13.1766 12.2423 14.3727 8.95899 11.108C5.67568 7.84332 6.87855 6.64728 6.87855 6.64728L7.19721 6.3304C7.98232 5.5498 8.05632 4.29655 7.37132 3.38162L5.97028 1.51007C5.12253 0.377672 3.48439 0.228083 2.51272 1.19424L0.76872 2.92834C0.28692 3.4074 -0.0359464 4.02841 0.00320911 4.71732C0.103376 6.47978 0.900786 10.2719 5.35039 14.6962C10.069 19.388 14.4964 19.5744 16.307 19.4056C16.8796 19.3523 17.3776 19.0606 17.779 18.6615L19.3574 17.0922C20.4229 16.0327 20.1224 14.2165 18.7592 13.4755L16.6364 12.3215C15.7413 11.835 14.6509 11.9779 13.9513 12.6735Z" fill="white"/>
</svg>
