<svg width="18" height="18" viewBox="0 0 18 18" fill="none" xmlns="http://www.w3.org/2000/svg">
<path d="M16.5862 9.71155L8.23852 1.45908L8.24077 1.46147C7.29984 0.520125 6.0609 0.0468869 4.82741 0.0477306C3.59392 0.046922 2.35487 0.520125 1.41388 1.4615C0.47229 2.40281 -0.000632178 3.64151 6.34223e-07 4.87511C-0.000632178 6.10874 0.47229 7.34768 1.41391 8.28878L9.76138 16.541L9.75913 16.5386C10.7003 17.48 11.939 17.9529 13.1725 17.9524C14.4062 17.9529 15.6448 17.48 16.586 16.5389C17.5276 15.5972 18.0006 14.358 18 13.1247C18.0006 11.8913 17.5277 10.6526 16.5862 9.71155ZM2.79858 6.26494C1.99895 5.46548 1.99895 4.14762 2.80867 3.33804C3.2007 2.94587 3.7221 2.73012 4.2769 2.73012L2.79858 6.26494ZM15.773 15.7258C15.0535 16.4447 14.1157 16.8021 13.1725 16.8024C12.2294 16.8021 11.2915 16.4447 10.5719 15.7255L10.57 15.7237L10.5698 15.7231L6.72342 11.9208C6.73471 11.8467 6.75172 11.7598 6.7763 11.6633C6.86531 11.307 7.0445 10.8272 7.31486 10.3197C7.71993 9.55714 8.3302 8.73034 9.13686 8.09292C9.93976 7.45951 10.9247 7.00673 12.1456 6.93818L15.7715 10.5226L15.7732 10.524C16.4922 11.2437 16.8495 12.1814 16.8504 13.1246C16.8495 14.0679 16.4925 15.0058 15.773 15.7258Z" fill="white"/>
</svg>
