<svg width="38" height="38" viewBox="0 0 38 38" fill="none" xmlns="http://www.w3.org/2000/svg">
<path d="M35.8333 10.4583V8.76667C35.8333 5.57683 35.8333 3.98191 34.8081 2.99096C33.783 2 32.1331 2 28.8333 2H25.3333C22.0335 2 20.3836 2 19.3584 2.99096C18.3333 3.98191 18.3333 5.57683 18.3333 8.76667V29.0667C18.3333 32.2565 18.3333 33.8514 19.3584 34.8424C20.3836 35.8333 22.0335 35.8333 25.3333 35.8333H28.8333C32.1331 35.8333 33.783 35.8333 34.8081 34.8424C35.8333 33.8514 35.8333 32.2565 35.8333 29.0667V17.225" stroke="white" stroke-width="2.5" stroke-linecap="round"/>
<path d="M18.3333 18.9167H22.2221M18.3333 9H22.2221M18.3333 28.8333H22.2221M18.3333 23.875H24.1666M18.3333 13.9583H24.1666" stroke="white" stroke-width="2.5" stroke-linecap="round"/>
<path d="M2 8.76667V7.075C2 4.27216 4.08934 2 6.66667 2C9.24399 2 11.3333 4.27216 11.3333 7.075V8.76667M2 8.76667C2 8.76667 3.75 10.4583 6.66667 10.4583C9.58333 10.4583 11.3333 8.76667 11.3333 8.76667M2 8.76667V16.4573M11.3333 8.76667V24.319C11.3333 25.3722 11.3333 25.899 11.2746 26.4158C11.2053 27.0255 11.0751 27.6252 10.8864 28.2043C10.7264 28.6952 10.5098 29.1663 10.0766 30.1084L8.24098 34.1009M8.24098 34.1009L7.79228 35.0768C7.57911 35.5405 7.14334 35.8333 6.66667 35.8333C6.19 35.8333 5.75422 35.5405 5.54105 35.0768L5.09235 34.1009M8.24098 34.1009H5.09235M5.09235 34.1009L3.25673 30.1084C2.82356 29.1663 2.60696 28.6952 2.44696 28.2043C2.25822 27.6252 2.12805 27.0255 2.05875 26.4158C2 25.899 2 25.3724 2 24.319V22.8454" stroke="white" stroke-width="2.5" stroke-linecap="round"/>
</svg>
