<svg width="31" height="30" viewBox="0 0 31 30" fill="none" xmlns="http://www.w3.org/2000/svg">
<path fill-rule="evenodd" clip-rule="evenodd" d="M17.375 4.6875C17.375 4.16906 17.795 3.75 18.3125 3.75C18.83 3.75 19.25 4.16906 19.25 4.6875V8.4375C19.25 8.95594 18.83 9.375 18.3125 9.375C17.795 9.375 17.375 8.95594 17.375 8.4375V4.6875ZM8.9375 11.25H22.0625C22.58 11.25 23 10.8309 23 10.3125V0H8V10.3125C8 10.8309 8.42 11.25 8.9375 11.25ZM26.75 0H24.875V11.25C24.875 12.285 24.035 13.125 23 13.125H8C6.965 13.125 6.125 12.285 6.125 11.25V0H4.25C2.17906 0 0.5 1.67906 0.5 3.75V26.25C0.5 28.3209 2.17906 30 4.25 30H26.75C28.8209 30 30.5 28.3209 30.5 26.25V3.75C30.5 1.67906 28.8209 0 26.75 0Z" fill="#8878A5"/>
</svg>
