<svg width="17" height="21" viewBox="0 0 17 21" fill="none" xmlns="http://www.w3.org/2000/svg">
<path d="M0 4.8333C0 4.36809 0.326192 3.99097 0.728573 3.99097L3.2448 3.99052C3.74474 3.97586 4.1858 3.60834 4.35591 3.06462C4.36039 3.05033 4.36552 3.0327 4.38397 2.96871L4.49239 2.59259C4.55874 2.36199 4.61654 2.16107 4.69743 1.98149C5.01697 1.27203 5.60819 0.779375 6.29139 0.653244C6.46432 0.621315 6.64747 0.621449 6.85771 0.621603H10.1425C10.3527 0.621449 10.5358 0.621315 10.7088 0.653244C11.392 0.779375 11.9832 1.27203 12.3027 1.98149C12.3836 2.16107 12.4414 2.36199 12.5077 2.59259L12.6162 2.96871C12.6346 3.0327 12.6398 3.05033 12.6442 3.06462C12.8144 3.60834 13.3429 3.97631 13.8428 3.99097H16.2715C16.6738 3.99097 17 4.36809 17 4.8333C17 5.29851 16.6738 5.67564 16.2715 5.67564H0.728573C0.326192 5.67564 0 5.29851 0 4.8333Z" fill="white"/>
<path fill-rule="evenodd" clip-rule="evenodd" d="M8.11516 20.3784H8.88493C11.5333 20.3784 12.8576 20.3784 13.7185 19.5456C14.5795 18.7127 14.6676 17.3465 14.8437 14.614L15.0976 10.6769C15.1932 9.19429 15.241 8.45304 14.809 7.98329C14.3771 7.51355 13.6477 7.51355 12.189 7.51355H4.81115C3.35236 7.51355 2.62296 7.51355 2.19103 7.98329C1.75911 8.45304 1.8069 9.19429 1.90249 10.6769L2.15633 14.614C2.33251 17.3465 2.42059 18.7127 3.28157 19.5456C4.14255 20.3784 5.46676 20.3784 8.11516 20.3784ZM6.83099 11.1544C6.79177 10.7465 6.44194 10.4489 6.04968 10.4897C5.65741 10.5305 5.37122 10.8942 5.41044 11.3021L5.88631 16.2501C5.92554 16.658 6.27533 16.9556 6.66757 16.9148C7.05988 16.874 7.34606 16.5103 7.30685 16.1024L6.83099 11.1544ZM10.9504 10.4897C11.3427 10.5305 11.6289 10.8942 11.5897 11.3021L11.1138 16.2501C11.0746 16.658 10.7247 16.9556 10.3325 16.9148C9.94021 16.874 9.65403 16.5103 9.69324 16.1024L10.1691 11.1544C10.2083 10.7465 10.5582 10.4489 10.9504 10.4897Z" fill="white"/>
</svg>
