<svg width="13" height="13" viewBox="0 0 13 13" fill="none" xmlns="http://www.w3.org/2000/svg">
<path d="M8.17329 5.83743L7.51043 6.50032L8.17329 7.16322L11.9481 10.9382L10.9383 11.948L7.16288 8.17306L6.5 7.51026L5.83713 8.17306L2.06199 11.9478L1.05198 10.9382L4.8273 7.16328L5.49027 6.50038L4.82736 5.83743L1.05201 2.06189L2.06257 1.05222L5.83702 4.82748L6.49995 5.49055L7.16293 4.82753L10.9383 1.05202L11.9481 2.06241L8.17329 5.83743ZM2.25782 12.1435L2.25763 12.1433C2.25774 12.1434 2.25786 12.1435 2.25797 12.1437L2.25782 12.1435ZM2.25862 0.856343C2.25852 0.856445 2.25842 0.856548 2.25831 0.856651L2.25862 0.856343Z" fill="#925B64" stroke="white" stroke-width="1.875"/>
</svg>
