<svg width="23" height="23" viewBox="0 0 23 23" fill="none" xmlns="http://www.w3.org/2000/svg">
<path d="M19.6497 3.3394C17.5769 1.27624 14.7136 0 11.5505 0C5.22507 0 0.0963181 5.10421 0.0963181 11.4011C0.0963181 13.4964 0.66421 15.4591 1.65436 17.1465L1.62508 17.0928L0 23L6.07113 21.4147C7.65151 22.2882 9.53704 22.8021 11.5435 22.8021H11.5482C17.8736 22.7998 23 17.6948 23 11.3988C23 8.25187 21.7194 5.40333 19.6489 3.34017L19.6497 3.3394ZM11.5482 20.8763H11.5443C9.75741 20.8763 8.08456 20.3854 6.65674 19.5317L6.69989 19.5555L6.35237 19.3507L2.75008 20.2918L3.71095 16.7952L3.48441 16.437C2.57131 15.0089 2.02885 13.2686 2.02885 11.4018C2.02885 6.16953 6.29073 1.9274 11.5474 1.9274C16.804 1.9274 21.0659 6.16953 21.0659 11.4018C21.0659 16.6341 16.8056 20.8763 11.5482 20.8763ZM16.7694 13.781C16.4835 13.6383 15.0765 12.9503 14.8145 12.8545C14.5517 12.7594 14.3606 12.7126 14.1696 12.9979C13.98 13.2824 13.4314 13.9236 13.2642 14.1138C13.0977 14.3048 12.9297 14.3278 12.6439 14.1859C11.7577 13.8285 10.9965 13.3522 10.3346 12.7655L10.3423 12.7724C9.72659 12.2048 9.19877 11.5552 8.77266 10.8389L8.75108 10.799C8.58464 10.5144 8.73336 10.3603 8.87591 10.2184C9.00459 10.0911 9.16255 9.88552 9.3051 9.71986C9.4176 9.58257 9.51392 9.42534 9.58712 9.2566L9.59175 9.24356C9.62488 9.17684 9.64414 9.09937 9.64414 9.01654C9.64414 8.91607 9.61563 8.8225 9.56632 8.74273L9.56786 8.74503C9.49543 8.60238 8.92368 7.20035 8.68558 6.62972C8.45288 6.07443 8.21632 6.15036 8.04141 6.14116C7.87497 6.13349 7.68388 6.13195 7.49278 6.13195C7.18842 6.13962 6.91795 6.27614 6.73148 6.48706L6.73071 6.4886C6.11273 7.07226 5.729 7.89523 5.729 8.80716C5.729 8.8271 5.729 8.84781 5.72977 8.86775V8.86468C5.83071 9.98983 6.25451 10.9999 6.9064 11.8229L6.89715 11.8114C8.1331 13.636 9.78053 15.0956 11.7138 16.0788L11.7863 16.1118C12.2085 16.302 12.7494 16.5053 13.3027 16.6794L13.4175 16.7108C13.7581 16.8182 14.1503 16.8803 14.5571 16.8803C14.7906 16.8803 15.0202 16.8596 15.2422 16.8205L15.2183 16.8236C16.042 16.6525 16.7255 16.1578 17.1423 15.4821L17.1493 15.4691C17.2764 15.1884 17.3504 14.8609 17.3504 14.5165C17.3504 14.3746 17.338 14.2358 17.3141 14.1008L17.3165 14.1154C17.2456 13.9965 17.0545 13.9259 16.7678 13.7825L16.7694 13.781Z" fill="white"/>
</svg>
