<svg width="78" height="22" viewBox="0 0 78 22" fill="none" xmlns="http://www.w3.org/2000/svg">
<mask id="path-1-outside-1_102_133" maskUnits="userSpaceOnUse" x="0" y="2" width="48" height="16" fill="black">
<rect fill="white" y="2" width="48" height="16"/>
<path d="M1.494 17V4.4H3.906L11.34 13.472H10.17V4.4H13.05V17H10.656L3.204 7.928H4.374V17H1.494ZM19.9191 17.144C19.1151 17.144 18.3951 16.988 17.7591 16.676C17.1351 16.364 16.6491 15.89 16.3011 15.254C15.9531 14.606 15.7791 13.784 15.7791 12.788V7.316H18.5871V12.374C18.5871 13.178 18.7551 13.772 19.0911 14.156C19.4391 14.528 19.9251 14.714 20.5491 14.714C20.9811 14.714 21.3651 14.624 21.7011 14.444C22.0371 14.252 22.3011 13.964 22.4931 13.58C22.6851 13.184 22.7811 12.692 22.7811 12.104V7.316H25.5891V17H22.9251V14.336L23.4111 15.11C23.0871 15.782 22.6071 16.292 21.9711 16.64C21.3471 16.976 20.6631 17.144 19.9191 17.144ZM32.1505 17.144C31.0105 17.144 30.1225 16.856 29.4865 16.28C28.8505 15.692 28.5325 14.822 28.5325 13.67V5.174H31.3405V13.634C31.3405 14.042 31.4485 14.36 31.6645 14.588C31.8805 14.804 32.1745 14.912 32.5465 14.912C32.9905 14.912 33.3685 14.792 33.6805 14.552L34.4365 16.532C34.1485 16.736 33.8005 16.892 33.3925 17C32.9965 17.096 32.5825 17.144 32.1505 17.144ZM27.0385 9.692V7.532H33.7525V9.692H27.0385ZM36.0128 17V7.316H38.6948V10.052L38.3168 9.26C38.6048 8.576 39.0668 8.06 39.7028 7.712C40.3388 7.352 41.1128 7.172 42.0248 7.172V9.764C41.9048 9.752 41.7968 9.746 41.7008 9.746C41.6048 9.734 41.5028 9.728 41.3948 9.728C40.6268 9.728 40.0028 9.95 39.5228 10.394C39.0548 10.826 38.8208 11.504 38.8208 12.428V17H36.0128ZM43.712 17V7.316H46.52V17H43.712ZM45.116 5.966C44.6 5.966 44.18 5.816 43.856 5.516C43.532 5.216 43.37 4.844 43.37 4.4C43.37 3.956 43.532 3.584 43.856 3.284C44.18 2.984 44.6 2.834 45.116 2.834C45.632 2.834 46.052 2.978 46.376 3.266C46.7 3.542 46.862 3.902 46.862 4.346C46.862 4.814 46.7 5.204 46.376 5.516C46.064 5.816 45.644 5.966 45.116 5.966Z"/>
</mask>
<path d="M1.494 17V4.4H3.906L11.34 13.472H10.17V4.4H13.05V17H10.656L3.204 7.928H4.374V17H1.494ZM19.9191 17.144C19.1151 17.144 18.3951 16.988 17.7591 16.676C17.1351 16.364 16.6491 15.89 16.3011 15.254C15.9531 14.606 15.7791 13.784 15.7791 12.788V7.316H18.5871V12.374C18.5871 13.178 18.7551 13.772 19.0911 14.156C19.4391 14.528 19.9251 14.714 20.5491 14.714C20.9811 14.714 21.3651 14.624 21.7011 14.444C22.0371 14.252 22.3011 13.964 22.4931 13.58C22.6851 13.184 22.7811 12.692 22.7811 12.104V7.316H25.5891V17H22.9251V14.336L23.4111 15.11C23.0871 15.782 22.6071 16.292 21.9711 16.64C21.3471 16.976 20.6631 17.144 19.9191 17.144ZM32.1505 17.144C31.0105 17.144 30.1225 16.856 29.4865 16.28C28.8505 15.692 28.5325 14.822 28.5325 13.67V5.174H31.3405V13.634C31.3405 14.042 31.4485 14.36 31.6645 14.588C31.8805 14.804 32.1745 14.912 32.5465 14.912C32.9905 14.912 33.3685 14.792 33.6805 14.552L34.4365 16.532C34.1485 16.736 33.8005 16.892 33.3925 17C32.9965 17.096 32.5825 17.144 32.1505 17.144ZM27.0385 9.692V7.532H33.7525V9.692H27.0385ZM36.0128 17V7.316H38.6948V10.052L38.3168 9.26C38.6048 8.576 39.0668 8.06 39.7028 7.712C40.3388 7.352 41.1128 7.172 42.0248 7.172V9.764C41.9048 9.752 41.7968 9.746 41.7008 9.746C41.6048 9.734 41.5028 9.728 41.3948 9.728C40.6268 9.728 40.0028 9.95 39.5228 10.394C39.0548 10.826 38.8208 11.504 38.8208 12.428V17H36.0128ZM43.712 17V7.316H46.52V17H43.712ZM45.116 5.966C44.6 5.966 44.18 5.816 43.856 5.516C43.532 5.216 43.37 4.844 43.37 4.4C43.37 3.956 43.532 3.584 43.856 3.284C44.18 2.984 44.6 2.834 45.116 2.834C45.632 2.834 46.052 2.978 46.376 3.266C46.7 3.542 46.862 3.902 46.862 4.346C46.862 4.814 46.7 5.204 46.376 5.516C46.064 5.816 45.644 5.966 45.116 5.966Z" fill="white"/>
<path d="M1.494 17H0.994V17.5H1.494V17ZM1.494 4.4V3.9H0.994V4.4H1.494ZM3.906 4.4L4.29274 4.08309L4.14271 3.9H3.906V4.4ZM11.34 13.472V13.972H12.3962L11.7267 13.1551L11.34 13.472ZM10.17 13.472H9.67V13.972H10.17V13.472ZM10.17 4.4V3.9H9.67V4.4H10.17ZM13.05 4.4H13.55V3.9H13.05V4.4ZM13.05 17V17.5H13.55V17H13.05ZM10.656 17L10.2696 17.3174L10.4197 17.5H10.656V17ZM3.204 7.928V7.428H2.14623L2.81764 8.24537L3.204 7.928ZM4.374 7.928H4.874V7.428H4.374V7.928ZM4.374 17V17.5H4.874V17H4.374ZM1.994 17V4.4H0.994V17H1.994ZM1.494 4.9H3.906V3.9H1.494V4.9ZM3.51926 4.71691L10.9533 13.7889L11.7267 13.1551L4.29274 4.08309L3.51926 4.71691ZM11.34 12.972H10.17V13.972H11.34V12.972ZM10.67 13.472V4.4H9.67V13.472H10.67ZM10.17 4.9H13.05V3.9H10.17V4.9ZM12.55 4.4V17H13.55V4.4H12.55ZM13.05 16.5H10.656V17.5H13.05V16.5ZM11.0424 16.6826L3.59036 7.61063L2.81764 8.24537L10.2696 17.3174L11.0424 16.6826ZM3.204 8.428H4.374V7.428H3.204V8.428ZM3.874 7.928V17H4.874V7.928H3.874ZM4.374 16.5H1.494V17.5H4.374V16.5ZM17.7591 16.676L17.5355 17.1232L17.5389 17.1249L17.7591 16.676ZM16.3011 15.254L15.8606 15.4906L15.8625 15.494L16.3011 15.254ZM15.7791 7.316V6.816H15.2791V7.316H15.7791ZM18.5871 7.316H19.0871V6.816H18.5871V7.316ZM19.0911 14.156L18.7148 14.4853L18.7203 14.4915L18.726 14.4976L19.0911 14.156ZM21.7011 14.444L21.9373 14.8849L21.9492 14.8781L21.7011 14.444ZM22.4931 13.58L22.9404 13.8036L22.943 13.7981L22.4931 13.58ZM22.7811 7.316V6.816H22.2811V7.316H22.7811ZM25.5891 7.316H26.0891V6.816H25.5891V7.316ZM25.5891 17V17.5H26.0891V17H25.5891ZM22.9251 17H22.4251V17.5H22.9251V17ZM22.9251 14.336L23.3486 14.0701L22.4251 12.5994V14.336H22.9251ZM23.4111 15.11L23.8615 15.3271L23.9815 15.0782L23.8346 14.8441L23.4111 15.11ZM21.9711 16.64L22.2082 17.0802L22.2111 17.0786L21.9711 16.64ZM19.9191 16.644C19.1811 16.644 18.5381 16.5012 17.9793 16.2271L17.5389 17.1249C18.2522 17.4748 19.0491 17.644 19.9191 17.644V16.644ZM17.9827 16.2288C17.4535 15.9642 17.0409 15.5644 16.7397 15.014L15.8625 15.494C16.2573 16.2156 16.8167 16.7638 17.5355 17.1232L17.9827 16.2288ZM16.7416 15.0174C16.444 14.4633 16.2791 13.7294 16.2791 12.788H15.2791C15.2791 13.8386 15.4622 14.7487 15.8606 15.4906L16.7416 15.0174ZM16.2791 12.788V7.316H15.2791V12.788H16.2791ZM15.7791 7.816H18.5871V6.816H15.7791V7.816ZM18.0871 7.316V12.374H19.0871V7.316H18.0871ZM18.0871 12.374C18.0871 13.2329 18.2642 13.9703 18.7148 14.4853L19.4674 13.8267C19.246 13.5737 19.0871 13.1231 19.0871 12.374H18.0871ZM18.726 14.4976C19.1892 14.9927 19.8202 15.214 20.5491 15.214V14.214C20.03 14.214 19.689 14.0633 19.4562 13.8144L18.726 14.4976ZM20.5491 15.214C21.0524 15.214 21.5194 15.1086 21.9372 14.8847L21.465 14.0033C21.2108 14.1394 20.9098 14.214 20.5491 14.214V15.214ZM21.9492 14.8781C22.3801 14.6319 22.7092 14.2659 22.9403 13.8036L22.0459 13.3564C21.893 13.6621 21.6941 13.8721 21.453 14.0099L21.9492 14.8781ZM22.943 13.7981C23.1771 13.3153 23.2811 12.7434 23.2811 12.104H22.2811C22.2811 12.6406 22.1931 13.0527 22.0432 13.3619L22.943 13.7981ZM23.2811 12.104V7.316H22.2811V12.104H23.2811ZM22.7811 7.816H25.5891V6.816H22.7811V7.816ZM25.0891 7.316V17H26.0891V7.316H25.0891ZM25.5891 16.5H22.9251V17.5H25.5891V16.5ZM23.4251 17V14.336H22.4251V17H23.4251ZM22.5017 14.6019L22.9877 15.3759L23.8346 14.8441L23.3486 14.0701L22.5017 14.6019ZM22.9607 14.8929C22.6806 15.4738 22.2728 15.905 21.7311 16.2014L22.2111 17.0786C22.9414 16.679 23.4936 16.0902 23.8615 15.3271L22.9607 14.8929ZM21.7341 16.1998C21.1866 16.4946 20.5846 16.644 19.9191 16.644V17.644C20.7416 17.644 21.5076 17.4574 22.2082 17.0802L21.7341 16.1998ZM29.4865 16.28L29.1471 16.6472L29.1509 16.6506L29.4865 16.28ZM28.5325 5.174V4.674H28.0325V5.174H28.5325ZM31.3405 5.174H31.8405V4.674H31.3405V5.174ZM31.6645 14.588L31.3014 14.932L31.311 14.9416L31.6645 14.588ZM33.6805 14.552L34.1476 14.3736L33.9081 13.7462L33.3757 14.1557L33.6805 14.552ZM34.4365 16.532L34.7255 16.94L35.042 16.7159L34.9036 16.3536L34.4365 16.532ZM33.3925 17L33.5104 17.486L33.5205 17.4834L33.3925 17ZM27.0385 9.692H26.5385V10.192H27.0385V9.692ZM27.0385 7.532V7.032H26.5385V7.532H27.0385ZM33.7525 7.532H34.2525V7.032H33.7525V7.532ZM33.7525 9.692V10.192H34.2525V9.692H33.7525ZM32.1505 16.644C31.093 16.644 30.3395 16.3779 29.8222 15.9094L29.1509 16.6506C29.9056 17.3341 30.928 17.644 32.1505 17.644V16.644ZM29.826 15.9129C29.323 15.4479 29.0325 14.7308 29.0325 13.67H28.0325C28.0325 14.9132 28.378 15.9361 29.1471 16.6471L29.826 15.9129ZM29.0325 13.67V5.174H28.0325V13.67H29.0325ZM28.5325 5.674H31.3405V4.674H28.5325V5.674ZM30.8405 5.174V13.634H31.8405V5.174H30.8405ZM30.8405 13.634C30.8405 14.1304 30.9737 14.5858 31.3016 14.9319L32.0275 14.2441C31.9234 14.1342 31.8405 13.9536 31.8405 13.634H30.8405ZM31.311 14.9416C31.6405 15.271 32.0727 15.412 32.5465 15.412V14.412C32.2764 14.412 32.1206 14.337 32.0181 14.2344L31.311 14.9416ZM32.5465 15.412C33.086 15.412 33.5749 15.2641 33.9854 14.9483L33.3757 14.1557C33.1622 14.3199 32.8951 14.412 32.5465 14.412V15.412ZM33.2134 14.7304L33.9694 16.7104L34.9036 16.3536L34.1476 14.3736L33.2134 14.7304ZM34.1475 16.124C33.9168 16.2874 33.6259 16.421 33.2646 16.5166L33.5205 17.4834C33.9752 17.363 34.3803 17.1846 34.7255 16.94L34.1475 16.124ZM33.2747 16.5141C32.9195 16.6002 32.5452 16.644 32.1505 16.644V17.644C32.6198 17.644 33.0735 17.5918 33.5103 17.4859L33.2747 16.5141ZM27.5385 9.692V7.532H26.5385V9.692H27.5385ZM27.0385 8.032H33.7525V7.032H27.0385V8.032ZM33.2525 7.532V9.692H34.2525V7.532H33.2525ZM33.7525 9.192H27.0385V10.192H33.7525V9.192ZM36.0128 17H35.5128V17.5H36.0128V17ZM36.0128 7.316V6.816H35.5128V7.316H36.0128ZM38.6948 7.316H39.1948V6.816H38.6948V7.316ZM38.6948 10.052L38.2436 10.2674L39.1948 10.052H38.6948ZM38.3168 9.26L37.856 9.06597L37.7689 9.27282L37.8656 9.47536L38.3168 9.26ZM39.7028 7.712L39.9428 8.15068L39.9491 8.14713L39.7028 7.712ZM42.0248 7.172H42.5248V6.672H42.0248V7.172ZM42.0248 9.764L41.975 10.2615L42.5248 10.3165V9.764H42.0248ZM41.7008 9.746L41.6388 10.2421L41.6697 10.246H41.7008V9.746ZM39.5228 10.394L39.8619 10.7614L39.8623 10.761L39.5228 10.394ZM38.8208 17V17.5H39.3208V17H38.8208ZM36.5128 17V7.316H35.5128V17H36.5128ZM36.0128 7.816H38.6948V6.816H36.0128V7.816ZM38.1948 7.316V10.052H39.1948V7.316H38.1948ZM39.146 9.83663L38.768 9.04463L37.8656 9.47536L38.2436 10.2674L39.146 9.83663ZM38.7776 9.45403C39.0229 8.8715 39.4084 8.44301 39.9428 8.15063L39.4628 7.27337C38.7251 7.67699 38.1867 8.2805 37.856 9.06597L38.7776 9.45403ZM39.9491 8.14713C40.4935 7.83897 41.178 7.672 42.0248 7.672V6.672C41.0476 6.672 40.1841 6.86503 39.4565 7.27687L39.9491 8.14713ZM41.5248 7.172V9.764H42.5248V7.172H41.5248ZM42.0745 9.26648C41.942 9.25323 41.817 9.246 41.7008 9.246V10.246C41.7766 10.246 41.8676 10.2508 41.975 10.2615L42.0745 9.26648ZM41.7628 9.24986C41.644 9.23501 41.5212 9.228 41.3948 9.228V10.228C41.4844 10.228 41.5656 10.233 41.6388 10.2421L41.7628 9.24986ZM41.3948 9.228C40.5243 9.228 39.7715 9.48281 39.1833 10.027L39.8623 10.761C40.2341 10.4172 40.7293 10.228 41.3948 10.228V9.228ZM39.1837 10.0266C38.5741 10.5892 38.3208 11.4282 38.3208 12.428H39.3208C39.3208 11.5798 39.5355 11.0628 39.8619 10.7614L39.1837 10.0266ZM38.3208 12.428V17H39.3208V12.428H38.3208ZM38.8208 16.5H36.0128V17.5H38.8208V16.5ZM43.712 17H43.212V17.5H43.712V17ZM43.712 7.316V6.816H43.212V7.316H43.712ZM46.52 7.316H47.02V6.816H46.52V7.316ZM46.52 17V17.5H47.02V17H46.52ZM43.856 5.516L43.5163 5.88288L43.5163 5.88288L43.856 5.516ZM43.856 3.284L44.1957 3.65088L44.1957 3.65088L43.856 3.284ZM46.376 3.266L46.0438 3.63979L46.0518 3.64662L46.376 3.266ZM46.376 5.516L46.7226 5.87642L46.7228 5.87616L46.376 5.516ZM44.212 17V7.316H43.212V17H44.212ZM43.712 7.816H46.52V6.816H43.712V7.816ZM46.02 7.316V17H47.02V7.316H46.02ZM46.52 16.5H43.712V17.5H46.52V16.5ZM45.116 5.466C44.7033 5.466 44.4119 5.3493 44.1957 5.14912L43.5163 5.88288C43.9481 6.2827 44.4967 6.466 45.116 6.466V5.466ZM44.1957 5.14912C43.9746 4.94434 43.87 4.70559 43.87 4.4H42.87C42.87 4.9824 43.0895 5.48766 43.5163 5.88288L44.1957 5.14912ZM43.87 4.4C43.87 4.0944 43.9746 3.85566 44.1957 3.65088L43.5163 2.91712C43.0895 3.31234 42.87 3.81759 42.87 4.4H43.87ZM44.1957 3.65088C44.4119 3.45069 44.7033 3.334 45.116 3.334V2.334C44.4967 2.334 43.9481 2.5173 43.5163 2.91712L44.1957 3.65088ZM45.116 3.334C45.5341 3.334 45.8282 3.44803 46.0438 3.6397L46.7082 2.8923C46.2758 2.50797 45.7299 2.334 45.116 2.334V3.334ZM46.0518 3.64662C46.2589 3.82302 46.362 4.04125 46.362 4.346H47.362C47.362 3.76275 47.1412 3.26097 46.7002 2.88538L46.0518 3.64662ZM46.362 4.346C46.362 4.68429 46.251 4.94229 46.0292 5.15584L46.7228 5.87616C47.1491 5.46571 47.362 4.94371 47.362 4.346H46.362ZM46.0295 5.15558C45.8302 5.34715 45.5449 5.466 45.116 5.466V6.466C45.7432 6.466 46.2978 6.28485 46.7226 5.87642L46.0295 5.15558Z" fill="#38594A" mask="url(#path-1-outside-1_102_133)"/>
<mask id="path-3-outside-2_102_133" maskUnits="userSpaceOnUse" x="48" y="2" width="29" height="16" fill="black">
<rect fill="white" x="48" y="2" width="29" height="16"/>
<path d="M49.494 17V4.4H54.948C56.076 4.4 57.048 4.586 57.864 4.958C58.68 5.318 59.31 5.84 59.754 6.524C60.198 7.208 60.42 8.024 60.42 8.972C60.42 9.908 60.198 10.718 59.754 11.402C59.31 12.086 58.68 12.614 57.864 12.986C57.048 13.346 56.076 13.526 54.948 13.526H51.114L52.41 12.212V17H49.494ZM52.41 12.536L51.114 11.15H54.786C55.686 11.15 56.358 10.958 56.802 10.574C57.246 10.19 57.468 9.656 57.468 8.972C57.468 8.276 57.246 7.736 56.802 7.352C56.358 6.968 55.686 6.776 54.786 6.776H51.114L52.41 5.39V12.536ZM62.4796 17V7.316H65.2876V17H62.4796ZM63.8836 5.966C63.3676 5.966 62.9476 5.816 62.6236 5.516C62.2996 5.216 62.1376 4.844 62.1376 4.4C62.1376 3.956 62.2996 3.584 62.6236 3.284C62.9476 2.984 63.3676 2.834 63.8836 2.834C64.3996 2.834 64.8196 2.978 65.1436 3.266C65.4676 3.542 65.6296 3.902 65.6296 4.346C65.6296 4.814 65.4676 5.204 65.1436 5.516C64.8316 5.816 64.4116 5.966 63.8836 5.966ZM73.8337 17V15.11L73.6537 14.696V11.312C73.6537 10.712 73.4677 10.244 73.0957 9.908C72.7357 9.572 72.1777 9.404 71.4217 9.404C70.9057 9.404 70.3957 9.488 69.8917 9.656C69.3997 9.812 68.9797 10.028 68.6317 10.304L67.6237 8.342C68.1517 7.97 68.7877 7.682 69.5317 7.478C70.2757 7.274 71.0317 7.172 71.7997 7.172C73.2757 7.172 74.4217 7.52 75.2377 8.216C76.0537 8.912 76.4617 9.998 76.4617 11.474V17H73.8337ZM70.8817 17.144C70.1257 17.144 69.4777 17.018 68.9377 16.766C68.3977 16.502 67.9837 16.148 67.6957 15.704C67.4077 15.26 67.2637 14.762 67.2637 14.21C67.2637 13.634 67.4017 13.13 67.6777 12.698C67.9657 12.266 68.4157 11.93 69.0277 11.69C69.6397 11.438 70.4377 11.312 71.4217 11.312H73.9957V12.95H71.7277C71.0677 12.95 70.6117 13.058 70.3597 13.274C70.1197 13.49 69.9997 13.76 69.9997 14.084C69.9997 14.444 70.1377 14.732 70.4137 14.948C70.7017 15.152 71.0917 15.254 71.5837 15.254C72.0517 15.254 72.4717 15.146 72.8437 14.93C73.2157 14.702 73.4857 14.372 73.6537 13.94L74.0857 15.236C73.8817 15.86 73.5097 16.334 72.9697 16.658C72.4297 16.982 71.7337 17.144 70.8817 17.144Z"/>
</mask>
<path d="M49.494 17V4.4H54.948C56.076 4.4 57.048 4.586 57.864 4.958C58.68 5.318 59.31 5.84 59.754 6.524C60.198 7.208 60.42 8.024 60.42 8.972C60.42 9.908 60.198 10.718 59.754 11.402C59.31 12.086 58.68 12.614 57.864 12.986C57.048 13.346 56.076 13.526 54.948 13.526H51.114L52.41 12.212V17H49.494ZM52.41 12.536L51.114 11.15H54.786C55.686 11.15 56.358 10.958 56.802 10.574C57.246 10.19 57.468 9.656 57.468 8.972C57.468 8.276 57.246 7.736 56.802 7.352C56.358 6.968 55.686 6.776 54.786 6.776H51.114L52.41 5.39V12.536ZM62.4796 17V7.316H65.2876V17H62.4796ZM63.8836 5.966C63.3676 5.966 62.9476 5.816 62.6236 5.516C62.2996 5.216 62.1376 4.844 62.1376 4.4C62.1376 3.956 62.2996 3.584 62.6236 3.284C62.9476 2.984 63.3676 2.834 63.8836 2.834C64.3996 2.834 64.8196 2.978 65.1436 3.266C65.4676 3.542 65.6296 3.902 65.6296 4.346C65.6296 4.814 65.4676 5.204 65.1436 5.516C64.8316 5.816 64.4116 5.966 63.8836 5.966ZM73.8337 17V15.11L73.6537 14.696V11.312C73.6537 10.712 73.4677 10.244 73.0957 9.908C72.7357 9.572 72.1777 9.404 71.4217 9.404C70.9057 9.404 70.3957 9.488 69.8917 9.656C69.3997 9.812 68.9797 10.028 68.6317 10.304L67.6237 8.342C68.1517 7.97 68.7877 7.682 69.5317 7.478C70.2757 7.274 71.0317 7.172 71.7997 7.172C73.2757 7.172 74.4217 7.52 75.2377 8.216C76.0537 8.912 76.4617 9.998 76.4617 11.474V17H73.8337ZM70.8817 17.144C70.1257 17.144 69.4777 17.018 68.9377 16.766C68.3977 16.502 67.9837 16.148 67.6957 15.704C67.4077 15.26 67.2637 14.762 67.2637 14.21C67.2637 13.634 67.4017 13.13 67.6777 12.698C67.9657 12.266 68.4157 11.93 69.0277 11.69C69.6397 11.438 70.4377 11.312 71.4217 11.312H73.9957V12.95H71.7277C71.0677 12.95 70.6117 13.058 70.3597 13.274C70.1197 13.49 69.9997 13.76 69.9997 14.084C69.9997 14.444 70.1377 14.732 70.4137 14.948C70.7017 15.152 71.0917 15.254 71.5837 15.254C72.0517 15.254 72.4717 15.146 72.8437 14.93C73.2157 14.702 73.4857 14.372 73.6537 13.94L74.0857 15.236C73.8817 15.86 73.5097 16.334 72.9697 16.658C72.4297 16.982 71.7337 17.144 70.8817 17.144Z" fill="#5B9279"/>
<path d="M49.494 17H48.994V17.5H49.494V17ZM49.494 4.4V3.9H48.994V4.4H49.494ZM57.864 4.958L57.6566 5.41299L57.6622 5.41546L57.864 4.958ZM59.754 6.524L59.3346 6.79624L59.3346 6.79624L59.754 6.524ZM57.864 12.986L58.0658 13.4435L58.0714 13.441L57.864 12.986ZM51.114 13.526L50.758 13.1749L49.9186 14.026H51.114V13.526ZM52.41 12.212H52.91V10.993L52.054 11.8609L52.41 12.212ZM52.41 17V17.5H52.91V17H52.41ZM52.41 12.536L52.0448 12.8775L52.91 13.8028V12.536H52.41ZM51.114 11.15V10.65H49.9619L50.7488 11.4915L51.114 11.15ZM51.114 6.776L50.7488 6.4345L49.9619 7.276H51.114V6.776ZM52.41 5.39H52.91V4.12321L52.0448 5.0485L52.41 5.39ZM49.994 17V4.4H48.994V17H49.994ZM49.494 4.9H54.948V3.9H49.494V4.9ZM54.948 4.9C56.0223 4.9 56.9202 5.07725 57.6566 5.41295L58.0714 4.50305C57.1758 4.09475 56.1297 3.9 54.948 3.9V4.9ZM57.6622 5.41546C58.3979 5.74003 58.9485 6.20144 59.3346 6.79624L60.1734 6.25176C59.6715 5.47856 58.9621 4.89597 58.0658 4.50054L57.6622 5.41546ZM59.3346 6.79624C59.7179 7.3867 59.92 8.10458 59.92 8.972H60.92C60.92 7.94342 60.6781 7.0293 60.1734 6.25176L59.3346 6.79624ZM59.92 8.972C59.92 9.82602 59.7186 10.5383 59.3346 11.1298L60.1734 11.6742C60.6774 10.8977 60.92 9.98998 60.92 8.972H59.92ZM59.3346 11.1298C58.9475 11.726 58.3949 12.1944 57.6566 12.531L58.0714 13.441C58.9651 13.0336 59.6725 12.446 60.1734 11.6742L59.3346 11.1298ZM57.6622 12.5285C56.9242 12.8541 56.0243 13.026 54.948 13.026V14.026C56.1277 14.026 57.1718 13.8379 58.0658 13.4435L57.6622 12.5285ZM54.948 13.026H51.114V14.026H54.948V13.026ZM51.47 13.8771L52.766 12.5631L52.054 11.8609L50.758 13.1749L51.47 13.8771ZM51.91 12.212V17H52.91V12.212H51.91ZM52.41 16.5H49.494V17.5H52.41V16.5ZM52.7752 12.1945L51.4792 10.8085L50.7488 11.4915L52.0448 12.8775L52.7752 12.1945ZM51.114 11.65H54.786V10.65H51.114V11.65ZM54.786 11.65C55.7447 11.65 56.5566 11.4473 57.1291 10.9522L56.4749 10.1958C56.1594 10.4687 55.6273 10.65 54.786 10.65V11.65ZM57.1291 10.9522C57.7015 10.4571 57.968 9.77465 57.968 8.972H56.968C56.968 9.53735 56.7905 9.92288 56.4749 10.1958L57.1291 10.9522ZM57.968 8.972C57.968 8.16047 57.7035 7.47061 57.1291 6.97382L56.4749 7.73018C56.7885 8.00139 56.968 8.39153 56.968 8.972H57.968ZM57.1291 6.97382C56.5566 6.47869 55.7447 6.276 54.786 6.276V7.276C55.6273 7.276 56.1594 7.4573 56.4749 7.73018L57.1291 6.97382ZM54.786 6.276H51.114V7.276H54.786V6.276ZM51.4792 7.1175L52.7752 5.7315L52.0448 5.0485L50.7488 6.4345L51.4792 7.1175ZM51.91 5.39V12.536H52.91V5.39H51.91ZM62.4796 17H61.9796V17.5H62.4796V17ZM62.4796 7.316V6.816H61.9796V7.316H62.4796ZM65.2876 7.316H65.7876V6.816H65.2876V7.316ZM65.2876 17V17.5H65.7876V17H65.2876ZM62.6236 5.516L62.2839 5.88288L62.2839 5.88288L62.6236 5.516ZM62.6236 3.284L62.9633 3.65088L62.9633 3.65088L62.6236 3.284ZM65.1436 3.266L64.8113 3.63979L64.8194 3.64662L65.1436 3.266ZM65.1436 5.516L65.4901 5.87642L65.4904 5.87616L65.1436 5.516ZM62.9796 17V7.316H61.9796V17H62.9796ZM62.4796 7.816H65.2876V6.816H62.4796V7.816ZM64.7876 7.316V17H65.7876V7.316H64.7876ZM65.2876 16.5H62.4796V17.5H65.2876V16.5ZM63.8836 5.466C63.4709 5.466 63.1795 5.3493 62.9633 5.14912L62.2839 5.88288C62.7157 6.2827 63.2643 6.466 63.8836 6.466V5.466ZM62.9633 5.14912C62.7421 4.94434 62.6376 4.70559 62.6376 4.4H61.6376C61.6376 4.9824 61.857 5.48766 62.2839 5.88288L62.9633 5.14912ZM62.6376 4.4C62.6376 4.0944 62.7421 3.85566 62.9633 3.65088L62.2839 2.91712C61.857 3.31234 61.6376 3.81759 61.6376 4.4H62.6376ZM62.9633 3.65088C63.1795 3.45069 63.4709 3.334 63.8836 3.334V2.334C63.2643 2.334 62.7157 2.5173 62.2839 2.91712L62.9633 3.65088ZM63.8836 3.334C64.3017 3.334 64.5958 3.44803 64.8114 3.6397L65.4758 2.8923C65.0434 2.50797 64.4975 2.334 63.8836 2.334V3.334ZM64.8194 3.64662C65.0264 3.82302 65.1296 4.04125 65.1296 4.346H66.1296C66.1296 3.76275 65.9087 3.26097 65.4678 2.88538L64.8194 3.64662ZM65.1296 4.346C65.1296 4.68429 65.0185 4.94229 64.7968 5.15584L65.4904 5.87616C65.9166 5.46571 66.1296 4.94371 66.1296 4.346H65.1296ZM64.797 5.15558C64.5978 5.34715 64.3124 5.466 63.8836 5.466V6.466C64.5107 6.466 65.0654 6.28485 65.4901 5.87642L64.797 5.15558ZM73.8337 17H73.3337V17.5H73.8337V17ZM73.8337 15.11H74.3337V15.006L74.2922 14.9106L73.8337 15.11ZM73.6537 14.696H73.1537V14.8L73.1951 14.8954L73.6537 14.696ZM73.0957 9.908L72.7545 10.2736L72.7605 10.2791L73.0957 9.908ZM69.8917 9.656L70.0428 10.1327L70.0498 10.1303L69.8917 9.656ZM68.6317 10.304L68.1869 10.5325L68.4652 11.0742L68.9424 10.6957L68.6317 10.304ZM67.6237 8.342L67.3357 7.93326L66.9802 8.18371L67.1789 8.57049L67.6237 8.342ZM69.5317 7.478L69.3994 6.9958L69.3994 6.9958L69.5317 7.478ZM75.2377 8.216L75.5621 7.83558L75.5621 7.83558L75.2377 8.216ZM76.4617 17V17.5H76.9617V17H76.4617ZM68.9377 16.766L68.718 17.2153L68.7262 17.2191L68.9377 16.766ZM67.6957 15.704L68.1151 15.4319L68.1151 15.4319L67.6957 15.704ZM67.6777 12.698L67.2616 12.4206L67.2563 12.4288L67.6777 12.698ZM69.0277 11.69L69.2102 12.1556L69.218 12.1523L69.0277 11.69ZM73.9957 11.312H74.4957V10.812H73.9957V11.312ZM73.9957 12.95V13.45H74.4957V12.95H73.9957ZM70.3597 13.274L70.0342 12.8943L70.0252 12.9024L70.3597 13.274ZM70.4137 14.948L70.1055 15.3418L70.1149 15.3491L70.1246 15.356L70.4137 14.948ZM72.8437 14.93L73.0948 15.3625L73.1049 15.3563L72.8437 14.93ZM73.6537 13.94L74.128 13.7819L73.6898 12.4674L73.1877 13.7588L73.6537 13.94ZM74.0857 15.236L74.5609 15.3914L74.6122 15.2345L74.56 15.0779L74.0857 15.236ZM72.9697 16.658L72.7124 16.2293L72.7124 16.2293L72.9697 16.658ZM74.3337 17V15.11H73.3337V17H74.3337ZM74.2922 14.9106L74.1122 14.4966L73.1951 14.8954L73.3751 15.3094L74.2922 14.9106ZM74.1537 14.696V11.312H73.1537V14.696H74.1537ZM74.1537 11.312C74.1537 10.6009 73.9283 9.98634 73.4308 9.53695L72.7605 10.2791C73.007 10.5017 73.1537 10.8231 73.1537 11.312H74.1537ZM73.4368 9.54247C72.9454 9.08379 72.2386 8.904 71.4217 8.904V9.904C72.1167 9.904 72.5259 10.0602 72.7545 10.2735L73.4368 9.54247ZM71.4217 8.904C70.8503 8.904 70.287 8.99717 69.7335 9.18166L70.0498 10.1303C70.5043 9.97883 70.961 9.904 71.4217 9.904V8.904ZM69.7405 9.17938C69.1999 9.35082 68.7236 9.59292 68.321 9.91225L68.9424 10.6957C69.2357 10.4631 69.5995 10.2732 70.0428 10.1326L69.7405 9.17938ZM69.0764 10.0755L68.0684 8.11351L67.1789 8.57049L68.1869 10.5325L69.0764 10.0755ZM67.9116 8.75074C68.3842 8.41782 68.9651 8.1518 69.6639 7.9602L69.3994 6.9958C68.6102 7.2122 67.9191 7.52218 67.3357 7.93326L67.9116 8.75074ZM69.6639 7.9602C70.365 7.76796 71.0765 7.672 71.7997 7.672V6.672C70.9868 6.672 70.1863 6.78004 69.3994 6.9958L69.6639 7.9602ZM71.7997 7.672C73.2014 7.672 74.2167 8.00234 74.9132 8.59642L75.5621 7.83558C74.6266 7.03766 73.3499 6.672 71.7997 6.672V7.672ZM74.9132 8.59642C75.5803 9.16545 75.9617 10.0867 75.9617 11.474H76.9617C76.9617 9.90934 76.527 8.65855 75.5621 7.83558L74.9132 8.59642ZM75.9617 11.474V17H76.9617V11.474H75.9617ZM76.4617 16.5H73.8337V17.5H76.4617V16.5ZM70.8817 16.644C70.1797 16.644 69.6076 16.5269 69.1491 16.3129L68.7262 17.2191C69.3477 17.5091 70.0716 17.644 70.8817 17.644V16.644ZM69.1573 16.3168C68.6874 16.0871 68.3474 15.7899 68.1151 15.4319L67.2762 15.9761C67.6199 16.5061 68.1079 16.9169 68.7181 17.2152L69.1573 16.3168ZM68.1151 15.4319C67.882 15.0725 67.7637 14.6698 67.7637 14.21H66.7637C66.7637 14.8542 66.9333 15.4475 67.2762 15.9761L68.1151 15.4319ZM67.7637 14.21C67.7637 13.7172 67.8805 13.3091 68.099 12.9672L67.2563 12.4288C66.9228 12.9509 66.7637 13.5508 66.7637 14.21H67.7637ZM68.0937 12.9754C68.3115 12.6487 68.668 12.3681 69.2102 12.1555L68.8451 11.2245C68.1633 11.4919 67.6198 11.8833 67.2616 12.4206L68.0937 12.9754ZM69.218 12.1523C69.7477 11.9342 70.4741 11.812 71.4217 11.812V10.812C70.4012 10.812 69.5316 10.9418 68.8373 11.2277L69.218 12.1523ZM71.4217 11.812H73.9957V10.812H71.4217V11.812ZM73.4957 11.312V12.95H74.4957V11.312H73.4957ZM73.9957 12.45H71.7277V13.45H73.9957V12.45ZM71.7277 12.45C71.0489 12.45 70.4316 12.5538 70.0343 12.8944L70.6851 13.6536C70.7917 13.5622 71.0865 13.45 71.7277 13.45V12.45ZM70.0252 12.9024C69.6794 13.2135 69.4997 13.6188 69.4997 14.084H70.4997C70.4997 13.9012 70.5599 13.7665 70.6941 13.6456L70.0252 12.9024ZM69.4997 14.084C69.4997 14.5929 69.7046 15.028 70.1055 15.3418L70.7218 14.5542C70.5707 14.436 70.4997 14.2951 70.4997 14.084H69.4997ZM70.1246 15.356C70.5245 15.6393 71.0277 15.754 71.5837 15.754V14.754C71.1556 14.754 70.8788 14.6647 70.7027 14.54L70.1246 15.356ZM71.5837 15.754C72.1318 15.754 72.6398 15.6265 73.0947 15.3624L72.5926 14.4976C72.3035 14.6655 71.9715 14.754 71.5837 14.754V15.754ZM73.1049 15.3563C73.5762 15.0675 73.9147 14.6483 74.1197 14.1212L73.1877 13.7588C73.0566 14.0957 72.8552 14.3365 72.5824 14.5037L73.1049 15.3563ZM73.1793 14.0981L73.6113 15.3941L74.56 15.0779L74.128 13.7819L73.1793 14.0981ZM73.6104 15.0806C73.4421 15.5955 73.1445 15.97 72.7124 16.2293L73.2269 17.0867C73.8748 16.698 74.3212 16.1245 74.5609 15.3914L73.6104 15.0806ZM72.7124 16.2293C72.2729 16.493 71.6739 16.644 70.8817 16.644V17.644C71.7934 17.644 72.5864 17.471 73.2269 17.0867L72.7124 16.2293Z" fill="#38594A" mask="url(#path-3-outside-2_102_133)"/>
</svg>
